<?xml version="1.0" encoding="iso-8859-1"?>
<!-- Generator: Adobe Illustrator 23.0.1, SVG Export Plug-In . SVG Version: 6.00 Build 0)  -->
<svg version="1.1" id="Layer_1" xmlns="http://www.w3.org/2000/svg" xmlns:xlink="http://www.w3.org/1999/xlink" x="0px" y="0px"
	 viewBox="0 0 512 512" style="enable-background:new 0 0 512 512;" xml:space="preserve">
<g>
	<title>logo</title>
	<g id="doroob_logo">
		<path style="fill:#515457;" d="M314.984,173.972h-44.148c-4.268-0.013-8.524,0.442-12.693,1.356
			c-3.897,0.816-7.585,2.426-10.832,4.73c-3.197,2.32-5.774,5.39-7.505,8.94c-2.026,4.398-2.992,9.209-2.822,14.048
			c0,10.175,3.153,17.848,9.46,23.02c6.307,5.172,15.573,7.705,27.797,7.6h27.734v21.964h12.976v-81.658H314.984z M302.008,221.778
			h-27.766c-3.715,0.082-7.426-0.321-11.037-1.198c-2.639-0.646-5.111-1.844-7.253-3.516c-1.846-1.523-3.256-3.509-4.084-5.755
			c-0.896-2.573-1.328-5.285-1.277-8.01c-0.097-2.952,0.503-5.885,1.75-8.562c1.065-2.202,2.698-4.079,4.73-5.44
			c2.189-1.398,4.632-2.352,7.19-2.807c2.897-0.534,5.837-0.798,8.782-0.788h28.854v36.075H302.008z"/>
		<polygon style="fill:#515457;" points="338.714,255.645 372.219,255.645 372.219,173.972 359.242,173.972 359.242,243.694 
			338.714,243.694 		"/>
		<rect x="205.371" y="248.739" style="fill:#515457;" width="12.519" height="13.796"/>
		<path style="fill:#515457;" d="M477.637,188.935c-1.745-3.524-4.321-6.57-7.505-8.877c-3.254-2.302-6.946-3.912-10.848-4.73
			c-4.143-0.909-8.372-1.364-12.614-1.356H392.7v11.731h51.543c2.94-0.009,5.875,0.255,8.767,0.788
			c2.558,0.451,5.002,1.405,7.19,2.807c2.032,1.36,3.665,3.238,4.73,5.44c1.238,2.679,1.832,5.611,1.734,8.562
			c0.058,2.725-0.374,5.438-1.277,8.01c-0.823,2.248-2.233,4.235-4.084,5.755c-2.14,1.675-4.612,2.874-7.253,3.516
			c-3.58,0.87-7.258,1.273-10.942,1.198h-50.455v11.888h50.455c12.382,0,21.696-2.581,27.939-7.742s9.397-12.834,9.46-23.02
			C480.65,198.088,479.667,193.305,477.637,188.935"/>
		<polygon style="fill:#515457;" points="239.365,278.555 204.362,278.555 204.362,340.945 217.906,340.945 217.906,290.995 
			239.365,290.995 		"/>
		<path style="fill:#515457;" d="M33.968,294.148c1.823-3.71,4.531-6.916,7.884-9.334c3.402-2.381,7.254-4.044,11.321-4.888
			c4.362-0.942,8.813-1.407,13.276-1.388h46.071v12.251H68.813c-3.067-0.022-6.129,0.248-9.145,0.804
			c-2.669,0.47-5.219,1.461-7.505,2.917c-2.136,1.425-3.851,3.395-4.967,5.708c-1.294,2.792-1.916,5.849-1.813,8.924
			c-0.06,2.842,0.388,5.672,1.324,8.357c0.838,2.353,2.292,4.438,4.21,6.039c2.238,1.747,4.824,2.994,7.584,3.658
			c3.738,0.923,7.582,1.347,11.431,1.261h42.571v12.424H69.932c-12.918,0-22.642-2.696-29.169-8.089s-9.776-13.386-9.744-23.982
			c-0.173-5.046,0.836-10.062,2.948-14.648"/>
		<rect x="98.959" y="255.677" style="fill:#515457;" width="13.544" height="85.268"/>
		<path style="fill:#515457;" d="M156.509,291.105c9.814-0.009,17.777,7.94,17.785,17.754c0.009,9.814-7.94,17.777-17.754,17.785
			c-9.814,0.009-17.777-7.94-17.785-17.754c0-0.005,0-0.011,0-0.016C138.773,299.074,146.709,291.131,156.509,291.105
			 M156.509,278.003c-17.05,0.009-30.865,13.838-30.856,30.888c0.009,17.05,13.838,30.865,30.888,30.856
			c17.044-0.009,30.856-13.828,30.856-30.872C187.388,291.822,173.562,278.003,156.509,278.003"/>
		<path style="fill:#515457;" d="M280.202,291.105c9.814,0,17.77,7.956,17.769,17.77c0,9.814-7.956,17.769-17.77,17.769
			c-9.814,0-17.769-7.956-17.769-17.77C262.45,299.068,270.395,291.123,280.202,291.105 M280.202,278.003
			c-17.05,0.009-30.865,13.838-30.856,30.888c0.009,17.05,13.838,30.865,30.888,30.856c17.044-0.009,30.856-13.828,30.856-30.872
			c0-17.05-13.822-30.872-30.872-30.872l0,0"/>
		<path style="fill:#515457;" d="M349.388,291.105c9.814-0.009,17.777,7.94,17.785,17.754s-7.94,17.777-17.754,17.785
			c-9.814,0.009-17.777-7.94-17.785-17.754c0-0.005,0-0.01,0-0.016C331.651,299.074,339.587,291.131,349.388,291.105
			 M349.388,278.003c-17.05,0-30.872,13.822-30.872,30.872s13.822,30.872,30.872,30.872c17.05,0,30.872-13.822,30.872-30.872
			C380.26,291.825,366.438,278.003,349.388,278.003c-0.005,0-0.01,0-0.016,0"/>
		<polygon style="fill:#515457;" points="205.955,171.055 205.955,185.907 205.955,222.708 122.925,222.708 109.933,235.7 
			217.89,235.7 217.89,171.055 		"/>
		<polygon style="fill:#58B557;" points="44.122,222.708 31.145,235.7 48.016,235.7 61.008,222.708 		"/>
		<polygon style="fill:#0C3554;" points="70.374,222.708 57.397,235.7 74.268,235.7 87.26,222.708 		"/>
		<polygon style="fill:#F39A35;" points="96.642,222.708 83.65,235.7 100.52,235.7 113.528,222.708 		"/>
		<polygon style="fill:#0C3554;" points="424.896,328.584 437.274,340.945 424.534,340.945 412.188,328.584 		"/>
		<polygon style="fill:#58B557;" points="406.244,328.584 418.605,340.945 405.061,340.945 392.7,328.584 		"/>
		<path style="fill:#F39A35;" d="M430.651,328.426l12.472,12.488c3.912-0.029,7.814-0.383,11.668-1.056l-11.415-11.431H430.651z"/>
		<path style="fill:#515457;" d="M478.016,294.148c-1.818-3.714-4.527-6.92-7.884-9.334c-3.396-2.382-7.243-4.045-11.305-4.888
			c-4.351-0.942-8.792-1.407-13.244-1.388h-39.418V255.74h-13.56v68.256h13.56V290.79h36.911c3.072-0.022,6.139,0.247,9.161,0.804
			c2.668,0.473,5.218,1.464,7.505,2.917c2.147,1.418,3.878,3.383,5.014,5.692c1.309,2.793,1.941,5.856,1.845,8.94
			c0.057,2.842-0.392,5.671-1.324,8.357c-0.834,2.351-2.282,4.436-4.194,6.039c-2.232,1.746-4.813,2.994-7.568,3.658
			c-1.35,0.345-2.719,0.613-4.099,0.804l10.611,10.595c4.062-1.16,7.856-3.11,11.163-5.739c6.538-5.403,9.802-13.418,9.791-24.045
			c0.178-5.046-0.832-10.063-2.948-14.648"/>
	</g>
</g>
</svg>
