<?xml version="1.0" encoding="UTF-8"?>
<svg xmlns="http://www.w3.org/2000/svg" xmlns:xlink="http://www.w3.org/1999/xlink" width="416.956pt" height="279.783pt" viewBox="0 0 416.956 279.783" version="1.1">
<g id="surface1">
<path style=" stroke:none;fill-rule:nonzero;fill:rgb(33.332825%,33.724976%,35.293579%);fill-opacity:1;" d="M 226.113281 183.503906 L 226.113281 205.019531 C 226.113281 206.566406 225.867188 207.625 225.386719 208.207031 C 224.902344 208.785156 224.171875 209.074219 223.203125 209.074219 C 222.292969 209.074219 221.238281 208.785156 220.046875 208.207031 L 220.046875 214.21875 C 222.320313 214.984375 224.21875 215.363281 225.75 215.363281 C 227.480469 215.363281 228.964844 214.984375 230.195313 214.21875 C 231.425781 213.453125 232.324219 212.359375 232.894531 210.933594 C 233.460938 209.507813 233.746094 207.347656 233.746094 204.457031 L 233.746094 181.722656 Z M 226.113281 183.503906 "/>
<path style=" stroke:none;fill-rule:nonzero;fill:rgb(33.332825%,33.724976%,35.293579%);fill-opacity:1;" d="M 250.953125 172.0625 L 243.320313 173.84375 L 243.320313 195.15625 C 243.320313 198.042969 243.605469 200.199219 244.171875 201.628906 C 244.742188 203.054688 245.640625 204.148438 246.875 204.914063 C 248.089844 205.671875 249.558594 206.050781 251.269531 206.058594 L 335.207031 206.035156 C 336.742188 205.972656 338.082031 205.609375 339.199219 204.914063 C 340.429688 204.148438 341.328125 203.054688 341.898438 201.628906 C 342.46875 200.199219 342.753906 198.042969 342.753906 195.152344 L 342.753906 183.679688 L 335.117188 185.460938 L 335.117188 194.128906 C 335.117188 195.675781 334.875 196.738281 334.390625 197.316406 C 333.980469 197.800781 333.390625 198.074219 332.636719 198.148438 L 318.988281 198.148438 L 318.890625 195.914063 C 318.890625 193.960938 318.523438 192.027344 317.792969 189.902344 C 317.058594 187.777344 315.84375 185.929688 314.144531 184.355469 C 312.445313 182.78125 310.226563 181.539063 307.488281 180.632813 C 304.75 179.726563 301.402344 179.273438 297.433594 179.273438 C 295.921875 179.273438 294.648438 179.296875 293.609375 179.347656 C 292.570313 179.390625 293.460938 179.460938 292.65625 179.558594 L 291.945313 186.859375 C 292.75 186.765625 293.707031 186.695313 294.816406 186.644531 C 295.925781 186.597656 297.140625 186.574219 298.464844 186.574219 C 300.820313 186.574219 302.816406 186.789063 304.445313 187.21875 C 306.074219 187.648438 307.410156 188.328125 308.445313 189.257813 C 309.484375 190.1875 310.226563 191.394531 310.679688 192.875 C 311.113281 194.316406 311.332031 196.078125 311.347656 198.148438 L 253.4375 198.148438 C 252.683594 198.074219 252.09375 197.804688 251.683594 197.316406 C 251.199219 196.738281 250.953125 195.675781 250.953125 194.128906 Z M 250.953125 172.0625 "/>
<path style=" stroke:none;fill-rule:nonzero;fill:rgb(33.332825%,33.724976%,35.293579%);fill-opacity:1;" d="M 357.023438 213.230469 C 357.527344 213.230469 358.136719 213.433594 358.640625 213.636719 C 359.25 213.941406 359.65625 214.144531 359.957031 214.34375 L 359.957031 210.703125 C 359.347656 210.398438 358.742188 210.097656 358.238281 209.894531 C 357.628906 209.691406 357.125 209.59375 356.515625 209.59375 C 355.808594 209.59375 355.097656 209.691406 354.492188 209.894531 C 353.785156 210.097656 353.28125 210.398438 352.773438 210.804688 C 352.371094 211.109375 351.964844 211.714844 351.660156 212.320313 C 351.359375 213.03125 351.253906 213.738281 351.253906 214.648438 C 351.253906 214.851563 351.253906 215.15625 351.359375 215.558594 C 351.457031 215.863281 351.558594 216.269531 351.660156 216.46875 L 349.335938 216.46875 L 349.335938 219.710938 L 359.855469 219.710938 L 359.855469 216.371094 L 355.507813 216.371094 C 355.300781 216.167969 355.203125 215.863281 355.097656 215.460938 C 355 215.054688 355 214.851563 355 214.648438 C 355 214.042969 355.203125 213.636719 355.605469 213.433594 C 356.011719 213.230469 356.515625 213.230469 357.023438 213.230469 "/>
<path style=" stroke:none;fill-rule:nonzero;fill:rgb(33.332825%,33.724976%,35.293579%);fill-opacity:1;" d="M 325.359375 211.023438 C 324.1875 211.023438 323.210938 211.414063 322.332031 212.289063 C 321.453125 213.167969 321.066406 214.144531 321.066406 215.414063 C 321.066406 216.585938 321.453125 217.558594 322.332031 218.4375 C 323.113281 219.316406 324.1875 219.710938 325.359375 219.710938 C 326.53125 219.710938 327.601563 219.21875 328.382813 218.4375 C 329.261719 217.558594 329.652344 216.585938 329.652344 215.414063 C 329.652344 214.144531 329.261719 213.167969 328.382813 212.289063 C 327.503906 211.414063 326.53125 211.023438 325.359375 211.023438 "/>
<path style=" stroke:none;fill-rule:nonzero;fill:rgb(33.332825%,33.724976%,35.293579%);fill-opacity:1;" d="M 336.191406 211.023438 C 335.019531 211.023438 334.042969 211.414063 333.164063 212.289063 C 332.285156 213.167969 331.898438 214.144531 331.898438 215.414063 C 331.898438 216.585938 332.285156 217.558594 333.164063 218.4375 C 333.945313 219.316406 335.019531 219.710938 336.191406 219.710938 C 337.363281 219.710938 338.339844 219.21875 339.214844 218.4375 C 340.09375 217.558594 340.484375 216.585938 340.484375 215.414063 C 340.484375 214.144531 340.09375 213.167969 339.214844 212.289063 C 338.339844 211.414063 337.363281 211.023438 336.191406 211.023438 "/>
<path style=" stroke:none;fill-rule:nonzero;fill:rgb(33.332825%,33.724976%,35.293579%);fill-opacity:1;" d="M 298.976563 211.023438 C 297.804688 211.023438 296.828125 211.414063 295.949219 212.289063 C 295.074219 213.167969 294.683594 214.144531 294.683594 215.414063 C 294.683594 216.585938 295.074219 217.558594 295.949219 218.4375 C 296.734375 219.316406 297.804688 219.710938 298.976563 219.710938 C 300.148438 219.710938 301.222656 219.21875 302.003906 218.4375 C 302.878906 217.558594 303.269531 216.585938 303.269531 215.414063 C 303.269531 214.144531 302.878906 213.167969 302.003906 212.289063 C 301.125 211.414063 300.148438 211.023438 298.976563 211.023438 "/>
<path style=" stroke:none;fill-rule:nonzero;fill:rgb(33.332825%,33.724976%,35.293579%);fill-opacity:1;" d="M 352.324219 172.0625 L 352.324219 206.0625 L 359.957031 206.0625 L 359.957031 170.277344 Z M 352.324219 172.0625 "/>
<path style=" stroke:none;fill-rule:nonzero;fill:rgb(0%,65.882874%,52.941895%);fill-opacity:1;" d="M 220.046875 104.617188 L 220.046875 126.160156 C 221.445313 126.152344 353.453125 95.230469 353.453125 95.230469 C 358.398438 94.078125 359.957031 92.949219 359.957031 90.460938 L 359.957031 68.035156 C 359.9375 70.835938 355.921875 72.992188 351.746094 73.964844 Z M 220.046875 104.617188 "/>
<path style=" stroke:none;fill-rule:nonzero;fill:rgb(0%,34.509277%,31.37207%);fill-opacity:1;" d="M 220.046875 136.019531 L 220.046875 157.558594 C 221.445313 157.554688 353.453125 126.628906 353.453125 126.628906 C 358.398438 125.480469 359.957031 124.351563 359.957031 121.859375 L 359.957031 99.433594 C 359.9375 102.234375 355.921875 104.394531 351.746094 105.367188 Z M 220.046875 136.019531 "/>
<path style=" stroke:none;fill-rule:nonzero;fill:rgb(78.431702%,78.431702%,78.823853%);fill-opacity:1;" d="M 228.402344 62.484375 L 238.382813 64.75 C 252.039063 61.570313 268.636719 57.707031 287.25 53.375 L 220.046875 38.144531 L 220.046875 57.167969 C 220.046875 59.910156 222.332031 61.109375 228.402344 62.484375 "/>
<path style=" stroke:none;fill-rule:nonzero;fill:rgb(78.431702%,78.431702%,78.823853%);fill-opacity:1;" d="M 310.738281 47.910156 L 228.40625 29.246094 C 222.332031 27.867188 220.046875 26.671875 220.046875 23.925781 L 220.046875 4.902344 L 355.320313 35.566406 C 353.925781 37.199219 351.207031 38.457031 348.34375 39.15625 L 348.316406 39.164063 Z M 310.738281 47.910156 "/>
<path style=" stroke:none;fill-rule:nonzero;fill:rgb(10.980225%,81.176758%,78.823853%);fill-opacity:1;" d="M 218.316406 73.421875 L 199.097656 99.660156 C 201.023438 99.214844 353.453125 63.632813 353.453125 63.632813 C 358.402344 62.484375 359.960938 61.355469 359.960938 58.863281 L 359.960938 36.4375 C 359.9375 39.238281 355.921875 41.398438 351.746094 42.371094 Z M 218.316406 73.421875 "/>
<path style=" stroke:none;fill-rule:nonzero;fill:rgb(33.332825%,33.724976%,35.293579%);fill-opacity:1;" d="M 225.851563 260.816406 L 244.816406 260.816406 L 244.816406 253.808594 L 227.566406 253.808594 L 227.566406 247.933594 L 242.871094 247.933594 L 242.871094 240.878906 L 227.566406 240.878906 L 227.566406 234.527344 L 244.816406 234.527344 L 244.816406 227.605469 L 225.851563 227.605469 C 222.589844 227.605469 219.949219 230.246094 219.949219 233.503906 L 219.949219 254.917969 C 219.949219 258.175781 222.589844 260.816406 225.851563 260.816406 "/>
<path style=" stroke:none;fill-rule:nonzero;fill:rgb(33.332825%,33.724976%,35.293579%);fill-opacity:1;" d="M 338.296875 234.53125 L 345.832031 234.53125 C 346.738281 234.53125 347.453125 234.691406 347.953125 235.011719 C 348.480469 235.347656 348.890625 235.757813 349.167969 236.222656 C 349.464844 236.71875 349.664063 237.242188 349.761719 237.777344 C 349.867188 238.363281 349.921875 238.867188 349.921875 239.28125 C 349.921875 240.058594 349.789063 240.734375 349.539063 241.292969 C 349.277344 241.863281 348.949219 242.34375 348.5625 242.722656 C 348.179688 243.09375 347.753906 243.363281 347.265625 243.542969 C 346.765625 243.726563 346.28125 243.820313 345.832031 243.820313 L 338.296875 243.820313 Z M 358.683594 259.578125 C 356.304688 256.296875 353.851563 252.984375 351.386719 249.714844 C 353.097656 248.863281 354.515625 247.613281 355.605469 245.988281 C 356.886719 244.078125 357.535156 241.820313 357.535156 239.28125 C 357.535156 237.609375 357.246094 236.035156 356.675781 234.605469 C 356.105469 233.175781 355.300781 231.925781 354.277344 230.886719 C 353.253906 229.847656 352.007813 229.035156 350.566406 228.460938 C 349.136719 227.890625 347.546875 227.605469 345.839844 227.605469 L 335.105469 227.605469 C 332.660156 227.605469 330.679688 229.585938 330.679688 232.03125 L 330.679688 260.820313 L 338.296875 260.820313 L 338.296875 250.742188 L 343.097656 250.742188 C 344.230469 252.359375 345.359375 253.953125 346.488281 255.519531 C 347.695313 257.1875 348.949219 258.867188 350.214844 260.515625 L 350.445313 260.820313 L 359.585938 260.820313 Z M 358.683594 259.578125 "/>
<path style=" stroke:none;fill-rule:nonzero;fill:rgb(33.332825%,33.724976%,35.293579%);fill-opacity:1;" d="M 270.613281 229.175781 L 270.613281 247.875 C 270.613281 248.4375 270.550781 249.09375 270.429688 249.824219 C 270.316406 250.507813 270.078125 251.179688 269.71875 251.820313 C 269.375 252.4375 268.894531 252.945313 268.261719 253.367188 C 267.660156 253.769531 266.808594 253.972656 265.730469 253.972656 C 265.113281 253.972656 264.578125 253.882813 264.140625 253.703125 C 263.683594 253.519531 263.285156 253.28125 262.941406 253.003906 C 262.59375 252.722656 262.296875 252.398438 262.050781 252.039063 C 261.792969 251.667969 261.585938 251.296875 261.433594 250.945313 L 261.121094 250.210938 L 254.191406 253.320313 L 254.511719 254.035156 C 255.492188 256.214844 256.96875 257.941406 258.890625 259.171875 C 260.8125 260.402344 263.113281 261.027344 265.730469 261.027344 C 267.578125 261.027344 269.292969 260.707031 270.828125 260.078125 C 272.363281 259.449219 273.699219 258.542969 274.792969 257.386719 C 275.886719 256.234375 276.742188 254.824219 277.335938 253.207031 C 277.925781 251.597656 278.226563 249.808594 278.226563 247.875 L 278.226563 227.398438 Z M 270.613281 229.175781 "/>
<path style=" stroke:none;fill-rule:nonzero;fill:rgb(33.332825%,33.724976%,35.293579%);fill-opacity:1;" d="M 299.96875 248.984375 L 303.269531 242.035156 L 306.539063 248.984375 Z M 304.449219 228.402344 C 304.257813 227.945313 303.800781 227.625 303.273438 227.625 C 302.742188 227.625 302.289063 227.945313 302.09375 228.402344 L 285.523438 260.792969 L 293.859375 260.792969 L 296.28125 255.824219 L 310.222656 255.824219 L 312.691406 260.792969 L 321.023438 260.792969 Z M 304.449219 228.402344 "/>
<path style=" stroke:none;fill-rule:nonzero;fill:rgb(0%,65.882874%,52.941895%);fill-opacity:1;" d="M 180.265625 250.328125 L 14.347656 250.328125 L 14.347656 23.355469 L 180.265625 23.355469 L 180.265625 25.046875 L 16.039063 25.046875 L 16.039063 248.640625 L 180.265625 248.640625 Z M 180.265625 250.328125 "/>
<path style=" stroke:none;fill-rule:nonzero;fill:rgb(0%,65.882874%,52.941895%);fill-opacity:1;" d="M 130.8125 244.507813 C 130.8125 262.777344 116 277.589844 97.730469 277.589844 C 79.460938 277.589844 64.648438 262.777344 64.648438 244.507813 C 64.648438 226.238281 79.460938 211.425781 97.730469 211.425781 C 116 211.425781 130.8125 226.238281 130.8125 244.507813 "/>
<path style=" stroke:none;fill-rule:nonzero;fill:rgb(100%,100%,100%);fill-opacity:1;" d="M 92.722656 259.101563 L 78.929688 245.304688 L 82.515625 241.71875 L 92.722656 251.929688 L 112.945313 231.707031 L 116.53125 235.292969 Z M 92.722656 259.101563 "/>
<path style=" stroke:none;fill-rule:nonzero;fill:rgb(0%,65.882874%,52.941895%);fill-opacity:1;" d="M 49.828125 71.464844 C 49.828125 71.109375 49.945313 70.816406 50.183594 70.574219 C 50.425781 70.335938 50.71875 70.21875 51.074219 70.21875 C 51.429688 70.21875 51.722656 70.335938 51.953125 70.574219 C 52.179688 70.816406 52.296875 71.109375 52.296875 71.464844 C 52.296875 71.820313 52.179688 72.117188 51.953125 72.355469 C 51.722656 72.59375 51.429688 72.710938 51.074219 72.710938 C 50.71875 72.710938 50.425781 72.59375 50.183594 72.355469 C 49.945313 72.117188 49.828125 71.820313 49.828125 71.464844 M 46.507813 71.464844 C 46.507813 71.109375 46.628906 70.816406 46.871094 70.574219 C 47.105469 70.335938 47.402344 70.21875 47.757813 70.21875 C 48.109375 70.21875 48.402344 70.335938 48.632813 70.574219 C 48.863281 70.816406 48.980469 71.109375 48.980469 71.464844 C 48.980469 71.820313 48.863281 72.117188 48.632813 72.355469 C 48.402344 72.59375 48.109375 72.710938 47.757813 72.710938 C 47.402344 72.710938 47.105469 72.59375 46.871094 72.355469 C 46.628906 72.117188 46.507813 71.820313 46.507813 71.464844 M 42.664063 61.855469 C 42.664063 62.6875 42.835938 63.386719 43.191406 63.953125 C 43.546875 64.519531 44.027344 64.96875 44.640625 65.304688 C 45.25 65.644531 45.964844 65.882813 46.789063 66.023438 C 47.613281 66.164063 48.492188 66.234375 49.429688 66.234375 C 50.457031 66.234375 51.378906 66.160156 52.203125 66.007813 C 53.023438 65.859375 53.726563 65.65625 54.300781 65.402344 C 54.875 65.144531 55.316406 64.847656 55.628906 64.511719 C 55.9375 64.175781 56.09375 63.828125 56.09375 63.476563 C 56.09375 62.890625 55.800781 62.378906 55.214844 61.9375 C 54.632813 61.492188 53.808594 60.980469 52.746094 60.398438 C 52.339844 60.183594 51.945313 59.957031 51.566406 59.71875 C 51.183594 59.480469 50.84375 59.214844 50.546875 58.921875 C 50.246094 58.632813 50 58.296875 49.816406 57.914063 C 49.628906 57.535156 49.535156 57.089844 49.535156 56.574219 C 49.535156 55.988281 49.644531 55.417969 49.867188 54.863281 C 50.089844 54.304688 50.429688 53.8125 50.886719 53.390625 C 51.347656 52.964844 51.945313 52.625 52.683594 52.367188 C 53.414063 52.109375 54.296875 51.984375 55.320313 51.984375 C 55.730469 51.984375 56.226563 52.027344 56.808594 52.113281 C 57.390625 52.203125 57.894531 52.320313 58.320313 52.460938 L 57.976563 54.027344 C 57.746094 53.957031 57.410156 53.878906 56.96875 53.800781 C 56.523438 53.71875 56.074219 53.679688 55.613281 53.679688 C 54.886719 53.679688 54.277344 53.75 53.78125 53.894531 C 53.285156 54.035156 52.886719 54.234375 52.578125 54.492188 C 52.265625 54.746094 52.039063 55.042969 51.898438 55.378906 C 51.757813 55.714844 51.6875 56.078125 51.6875 56.46875 C 51.6875 56.769531 51.746094 57.035156 51.871094 57.265625 C 51.996094 57.492188 52.164063 57.703125 52.375 57.886719 C 52.589844 58.074219 52.832031 58.246094 53.105469 58.40625 C 53.378906 58.566406 53.675781 58.722656 53.996094 58.882813 C 54.367188 59.09375 54.800781 59.332031 55.296875 59.585938 C 55.789063 59.84375 56.265625 60.140625 56.714844 60.476563 C 57.167969 60.8125 57.546875 61.195313 57.855469 61.628906 C 58.167969 62.066406 58.320313 62.546875 58.320313 63.078125 C 58.320313 63.804688 58.144531 64.476563 57.789063 65.09375 C 57.4375 65.714844 56.890625 66.246094 56.160156 66.6875 C 55.425781 67.128906 54.507813 67.472656 53.410156 67.722656 C 52.3125 67.96875 51.023438 68.09375 49.535156 68.09375 C 48.121094 68.09375 46.847656 67.972656 45.714844 67.734375 C 44.582031 67.496094 43.621094 67.121094 42.835938 66.609375 C 42.046875 66.09375 41.445313 65.4375 41.027344 64.628906 C 40.613281 63.824219 40.40625 62.847656 40.40625 61.695313 C 40.40625 61.007813 40.523438 60.175781 40.761719 59.203125 C 41 58.230469 41.359375 57.292969 41.839844 56.386719 L 43.800781 57.105469 C 43.414063 57.992188 43.125 58.808594 42.9375 59.5625 C 42.753906 60.3125 42.664063 61.078125 42.664063 61.855469 "/>
<path style=" stroke:none;fill-rule:nonzero;fill:rgb(0%,65.882874%,52.941895%);fill-opacity:1;" d="M 60.578125 70.109375 C 60.328125 70.109375 60.058594 70.097656 59.769531 70.070313 C 59.476563 70.042969 59.207031 70.003906 58.960938 69.953125 L 59.25 68.148438 C 59.445313 68.183594 59.644531 68.207031 59.847656 68.226563 C 60.050781 68.242188 60.25 68.253906 60.445313 68.253906 C 61.292969 68.253906 61.910156 67.992188 62.289063 67.46875 C 62.671875 66.949219 62.859375 66.105469 62.859375 64.9375 L 62.859375 54.132813 L 65.035156 54.132813 L 65.035156 64.644531 C 65.035156 66.464844 64.683594 67.832031 63.976563 68.746094 C 63.265625 69.65625 62.132813 70.109375 60.578125 70.109375 "/>
<path style=" stroke:none;fill-rule:nonzero;fill:rgb(0%,65.882874%,52.941895%);fill-opacity:1;" d="M 75.148438 64.617188 C 75.148438 64.867188 75.121094 65.070313 75.070313 65.226563 C 75.015625 65.386719 74.902344 65.464844 74.726563 65.464844 C 73.929688 65.464844 73.214844 65.410156 72.589844 65.292969 C 71.960938 65.179688 71.40625 64.96875 70.929688 64.667969 C 70.453125 64.367188 70.078125 63.957031 69.8125 63.433594 C 69.550781 62.914063 69.417969 62.238281 69.417969 61.40625 L 69.417969 45.957031 L 71.59375 45.957031 L 71.59375 61.085938 C 71.59375 61.597656 71.667969 62.027344 71.820313 62.359375 C 71.96875 62.699219 72.179688 62.96875 72.457031 63.171875 C 72.730469 63.375 73.03125 63.511719 73.355469 63.582031 C 73.683594 63.652344 74.023438 63.6875 74.378906 63.6875 C 74.699219 63.6875 74.90625 63.753906 75.003906 63.886719 C 75.101563 64.019531 75.148438 64.261719 75.148438 64.617188 "/>
<path style=" stroke:none;fill-rule:nonzero;fill:rgb(0%,65.882874%,52.941895%);fill-opacity:1;" d="M 82.050781 50.285156 C 82.050781 49.929688 82.167969 49.632813 82.40625 49.394531 C 82.648438 49.15625 82.945313 49.035156 83.296875 49.035156 C 83.652344 49.035156 83.945313 49.15625 84.171875 49.394531 C 84.402344 49.632813 84.519531 49.929688 84.519531 50.285156 C 84.519531 50.636719 84.402344 50.933594 84.171875 51.171875 C 83.945313 51.410156 83.652344 51.53125 83.296875 51.53125 C 82.945313 51.53125 82.648438 51.410156 82.40625 51.171875 C 82.167969 50.933594 82.050781 50.636719 82.050781 50.285156 M 78.730469 50.285156 C 78.730469 49.929688 78.851563 49.632813 79.089844 49.394531 C 79.328125 49.15625 79.625 49.035156 79.980469 49.035156 C 80.332031 49.035156 80.625 49.15625 80.855469 49.394531 C 81.085938 49.632813 81.199219 49.929688 81.199219 50.285156 C 81.199219 50.636719 81.085938 50.933594 80.855469 51.171875 C 80.625 51.410156 80.332031 51.53125 79.980469 51.53125 C 79.625 51.53125 79.328125 51.410156 79.089844 51.171875 C 78.851563 50.933594 78.730469 50.636719 78.730469 50.285156 M 78.414063 59.015625 C 78.414063 59.992188 78.695313 60.832031 79.261719 61.539063 C 79.828125 62.246094 80.605469 62.777344 81.597656 63.128906 C 82.605469 62.777344 83.394531 62.246094 83.960938 61.539063 C 84.527344 60.832031 84.808594 59.992188 84.808594 59.015625 C 84.808594 58.007813 84.507813 57.1875 83.910156 56.5625 C 83.304688 55.933594 82.546875 55.617188 81.625 55.617188 C 80.707031 55.617188 79.9375 55.933594 79.328125 56.5625 C 78.71875 57.1875 78.414063 58.007813 78.414063 59.015625 M 86.347656 65.464844 C 85.449219 65.464844 84.589844 65.417969 83.777344 65.320313 C 82.960938 65.222656 82.234375 65.101563 81.597656 64.960938 C 80.945313 65.101563 80.210938 65.222656 79.394531 65.320313 C 78.582031 65.417969 77.738281 65.464844 76.875 65.464844 L 74.722656 65.464844 C 74.351563 65.464844 74.070313 65.410156 73.875 65.292969 C 73.679688 65.179688 73.582031 64.945313 73.582031 64.589844 C 73.582031 64.253906 73.644531 64.019531 73.769531 63.886719 C 73.890625 63.753906 74.09375 63.6875 74.378906 63.6875 L 77.910156 63.6875 C 78.140625 63.6875 78.371094 63.671875 78.597656 63.636719 C 76.96875 62.484375 76.160156 60.945313 76.160156 59.015625 C 76.160156 58.21875 76.289063 57.507813 76.554688 56.878906 C 76.820313 56.25 77.191406 55.722656 77.671875 55.300781 C 78.148438 54.875 78.722656 54.546875 79.394531 54.320313 C 80.070313 54.089844 80.8125 53.972656 81.625 53.972656 C 83.324219 53.972656 84.65625 54.410156 85.621094 55.285156 C 86.582031 56.164063 87.066406 57.40625 87.066406 59.015625 C 87.066406 59.972656 86.863281 60.839844 86.453125 61.617188 C 86.050781 62.394531 85.429688 63.070313 84.597656 63.636719 C 84.828125 63.652344 85.058594 63.664063 85.289063 63.675781 C 85.515625 63.683594 85.757813 63.6875 86.007813 63.6875 L 88.445313 63.6875 C 88.695313 63.6875 88.886719 63.742188 89.015625 63.847656 C 89.148438 63.953125 89.214844 64.210938 89.214844 64.617188 C 89.214844 64.953125 89.175781 65.179688 89.097656 65.292969 C 89.015625 65.410156 88.914063 65.464844 88.792969 65.464844 Z M 86.347656 65.464844 "/>
<path style=" stroke:none;fill-rule:nonzero;fill:rgb(0%,65.882874%,52.941895%);fill-opacity:1;" d="M 92.109375 63.6875 C 91.492188 63.085938 91.046875 62.410156 90.78125 61.65625 C 90.515625 60.90625 90.386719 60.15625 90.386719 59.414063 C 90.386719 58.652344 90.523438 57.941406 90.796875 57.277344 C 91.070313 56.613281 91.472656 56.035156 92.003906 55.539063 C 92.535156 55.042969 93.191406 54.660156 93.980469 54.382813 C 94.769531 54.109375 95.675781 53.972656 96.703125 53.972656 C 97.125 53.972656 97.625 54.019531 98.199219 54.105469 C 98.777344 54.195313 99.285156 54.308594 99.726563 54.449219 L 99.355469 56.148438 C 99.125 56.078125 98.792969 56.003906 98.359375 55.921875 C 97.925781 55.84375 97.472656 55.804688 96.992188 55.804688 C 95.558594 55.804688 94.480469 56.152344 93.757813 56.851563 C 93.03125 57.550781 92.667969 58.449219 92.667969 59.546875 C 92.667969 60.007813 92.742188 60.484375 92.894531 60.980469 C 93.042969 61.476563 93.292969 61.921875 93.648438 62.320313 C 94.003906 62.71875 94.484375 63.046875 95.097656 63.300781 C 95.707031 63.558594 96.472656 63.6875 97.390625 63.6875 L 100.390625 63.6875 L 100.390625 65.464844 L 88.6875 65.464844 C 88.351563 65.464844 88.09375 65.402344 87.914063 65.28125 C 87.738281 65.15625 87.652344 64.925781 87.652344 64.589844 C 87.652344 64.289063 87.703125 64.0625 87.808594 63.914063 C 87.914063 63.761719 88.128906 63.6875 88.445313 63.6875 Z M 92.109375 63.6875 "/>
<path style=" stroke:none;fill-rule:nonzero;fill:rgb(0%,65.882874%,52.941895%);fill-opacity:1;" d="M 120.988281 55.804688 C 119.765625 55.804688 118.566406 55.996094 117.390625 56.375 C 116.214844 56.757813 115.097656 57.257813 114.03125 57.875 L 114.03125 63.6875 L 122.472656 63.6875 C 123.074219 63.6875 123.570313 63.625 123.960938 63.503906 C 124.351563 63.378906 124.660156 63.191406 124.890625 62.945313 C 125.117188 62.695313 125.285156 62.375 125.378906 61.976563 C 125.480469 61.578125 125.527344 61.097656 125.527344 60.527344 C 125.527344 59.855469 125.445313 59.234375 125.285156 58.65625 C 125.128906 58.082031 124.867188 57.582031 124.503906 57.15625 C 124.140625 56.734375 123.671875 56.402344 123.097656 56.160156 C 122.523438 55.925781 121.820313 55.804688 120.988281 55.804688 M 109.308594 65.464844 L 109.308594 63.6875 L 111.855469 63.6875 L 111.855469 45.957031 L 114.03125 45.957031 L 114.03125 55.9375 C 115.359375 55.265625 116.609375 54.769531 117.777344 54.449219 C 118.945313 54.132813 120.09375 53.972656 121.226563 53.972656 C 122.5 53.972656 123.554688 54.148438 124.386719 54.503906 C 125.21875 54.859375 125.878906 55.316406 126.375 55.882813 C 126.871094 56.449219 127.214844 57.09375 127.410156 57.808594 C 127.605469 58.523438 127.703125 59.246094 127.703125 59.972656 L 127.703125 61.164063 C 127.703125 61.839844 127.941406 62.425781 128.417969 62.929688 C 128.898438 63.4375 129.507813 63.6875 130.25 63.6875 C 130.589844 63.6875 130.800781 63.761719 130.886719 63.914063 C 130.976563 64.0625 131.019531 64.296875 131.019531 64.617188 C 131.019531 64.917969 130.984375 65.132813 130.914063 65.265625 C 130.84375 65.398438 130.738281 65.464844 130.597656 65.464844 C 130.3125 65.464844 130.007813 65.433594 129.679688 65.371094 C 129.351563 65.3125 129.03125 65.210938 128.710938 65.066406 C 128.394531 64.925781 128.089844 64.75 127.808594 64.535156 C 127.527344 64.324219 127.277344 64.058594 127.066406 63.742188 C 126.714844 64.289063 126.207031 64.714844 125.554688 65.015625 C 124.898438 65.316406 124.050781 65.464844 123.007813 65.464844 Z M 109.308594 65.464844 "/>
<path style=" stroke:none;fill-rule:nonzero;fill:rgb(0%,65.882874%,52.941895%);fill-opacity:1;" d="M 134.179688 63.6875 C 134.515625 63.6875 134.730469 63.761719 134.816406 63.914063 C 134.90625 64.0625 134.949219 64.296875 134.949219 64.617188 C 134.949219 64.953125 134.910156 65.179688 134.832031 65.292969 C 134.75 65.410156 134.648438 65.464844 134.523438 65.464844 L 130.597656 65.464844 C 130.15625 65.464844 129.855469 65.398438 129.695313 65.265625 C 129.535156 65.132813 129.453125 64.882813 129.453125 64.511719 C 129.453125 63.960938 129.71875 63.6875 130.25 63.6875 Z M 134.179688 63.6875 "/>
<path style=" stroke:none;fill-rule:nonzero;fill:rgb(0%,65.882874%,52.941895%);fill-opacity:1;" d="M 138.90625 68.863281 C 138.90625 68.507813 139.023438 68.214844 139.261719 67.972656 C 139.5 67.734375 139.796875 67.617188 140.152344 67.617188 C 140.503906 67.617188 140.796875 67.734375 141.027344 67.972656 C 141.257813 68.214844 141.375 68.507813 141.375 68.863281 C 141.375 69.21875 141.257813 69.511719 141.027344 69.753906 C 140.796875 69.992188 140.503906 70.109375 140.152344 70.109375 C 139.796875 70.109375 139.5 69.992188 139.261719 69.753906 C 139.023438 69.511719 138.90625 69.21875 138.90625 68.863281 M 135.585938 68.863281 C 135.585938 68.507813 135.707031 68.214844 135.945313 67.972656 C 136.183594 67.734375 136.480469 67.617188 136.835938 67.617188 C 137.1875 67.617188 137.480469 67.734375 137.710938 67.972656 C 137.9375 68.214844 138.054688 68.507813 138.054688 68.863281 C 138.054688 69.21875 137.9375 69.511719 137.710938 69.753906 C 137.480469 69.992188 137.1875 70.109375 136.835938 70.109375 C 136.480469 70.109375 136.183594 69.992188 135.945313 69.753906 C 135.707031 69.511719 135.585938 69.21875 135.585938 68.863281 M 134.179688 63.6875 C 135.3125 63.6875 136.144531 63.441406 136.675781 62.945313 C 137.207031 62.449219 137.472656 61.636719 137.472656 60.503906 L 137.472656 54.132813 L 139.648438 54.132813 L 139.648438 61.140625 C 139.648438 62.007813 139.902344 62.648438 140.417969 63.0625 C 140.929688 63.480469 141.648438 63.6875 142.566406 63.6875 C 142.871094 63.6875 143.070313 63.753906 143.175781 63.886719 C 143.285156 64.019531 143.339844 64.261719 143.339844 64.617188 C 143.339844 64.917969 143.300781 65.132813 143.230469 65.265625 C 143.160156 65.402344 143.054688 65.464844 142.914063 65.464844 C 142.0625 65.464844 141.292969 65.328125 140.601563 65.054688 C 139.914063 64.78125 139.371094 64.324219 138.984375 63.6875 C 138.1875 64.875 136.699219 65.464844 134.523438 65.464844 C 134.082031 65.464844 133.78125 65.402344 133.621094 65.265625 C 133.464844 65.132813 133.382813 64.882813 133.382813 64.511719 C 133.382813 63.960938 133.648438 63.6875 134.179688 63.6875 "/>
<path style=" stroke:none;fill-rule:nonzero;fill:rgb(0%,65.882874%,52.941895%);fill-opacity:1;" d="M 143.707031 63.6875 C 144.167969 63.6875 144.546875 63.609375 144.851563 63.449219 C 145.152344 63.289063 145.390625 63.078125 145.566406 62.8125 C 145.742188 62.546875 145.867188 62.238281 145.9375 61.882813 C 146.007813 61.527344 146.042969 61.15625 146.042969 60.769531 L 146.042969 56.601563 L 148.222656 56.601563 L 148.222656 61.140625 C 148.222656 61.972656 148.445313 62.605469 148.898438 63.039063 C 149.347656 63.472656 149.9375 63.6875 150.664063 63.6875 C 151.121094 63.6875 151.503906 63.609375 151.804688 63.449219 C 152.105469 63.289063 152.34375 63.078125 152.519531 62.8125 C 152.695313 62.546875 152.820313 62.238281 152.890625 61.882813 C 152.964844 61.527344 153 61.15625 153 60.769531 L 153 56.601563 L 155.175781 56.601563 L 155.175781 61.140625 C 155.175781 61.953125 155.394531 62.582031 155.835938 63.023438 C 156.28125 63.464844 156.875 63.6875 157.617188 63.6875 C 158.113281 63.6875 158.507813 63.574219 158.796875 63.34375 C 159.089844 63.113281 159.308594 62.832031 159.449219 62.503906 C 159.589844 62.179688 159.679688 61.839844 159.726563 61.484375 C 159.769531 61.128906 159.792969 60.804688 159.792969 60.503906 L 159.792969 54.132813 L 161.96875 54.132813 L 161.96875 60.902344 C 161.96875 61.34375 161.921875 61.820313 161.824219 62.332031 C 161.726563 62.847656 161.535156 63.34375 161.253906 63.820313 C 160.96875 64.296875 160.558594 64.691406 160.019531 65 C 159.480469 65.3125 158.804688 65.464844 157.988281 65.464844 C 157.210938 65.464844 156.519531 65.316406 155.917969 65.015625 C 155.316406 64.714844 154.875 64.296875 154.589844 63.765625 C 154.484375 63.925781 154.335938 64.109375 154.140625 64.3125 C 153.945313 64.515625 153.707031 64.699219 153.421875 64.867188 C 153.140625 65.039063 152.785156 65.179688 152.359375 65.292969 C 151.9375 65.410156 151.441406 65.464844 150.875 65.464844 C 150.078125 65.464844 149.40625 65.3125 148.859375 65 C 148.308594 64.691406 147.902344 64.28125 147.636719 63.765625 C 147.511719 63.960938 147.355469 64.152344 147.171875 64.335938 C 146.988281 64.523438 146.753906 64.699219 146.46875 64.867188 C 146.183594 65.039063 145.832031 65.179688 145.40625 65.292969 C 144.980469 65.410156 144.488281 65.464844 143.921875 65.464844 L 142.910156 65.464844 C 142.417969 65.464844 142.066406 65.398438 141.863281 65.265625 C 141.660156 65.132813 141.558594 64.910156 141.558594 64.589844 C 141.558594 63.988281 141.894531 63.6875 142.566406 63.6875 Z M 143.707031 63.6875 "/>
<path style=" stroke:none;fill-rule:nonzero;fill:rgb(0%,65.882874%,52.941895%);fill-opacity:1;" d="M 167.808594 59.945313 C 167.808594 60.6875 167.933594 61.304688 168.183594 61.789063 C 168.429688 62.277344 168.742188 62.660156 169.121094 62.945313 C 169.503906 63.226563 169.917969 63.421875 170.371094 63.527344 C 170.820313 63.636719 171.25 63.6875 171.660156 63.6875 C 172.277344 63.6875 172.792969 63.621094 173.210938 63.488281 C 173.628906 63.355469 173.941406 63.234375 174.152344 63.132813 L 174.152344 59.945313 C 174.152344 59.34375 174.105469 58.789063 174.007813 58.285156 C 173.910156 57.78125 173.742188 57.34375 173.5 56.972656 C 173.265625 56.601563 172.945313 56.3125 172.546875 56.109375 C 172.148438 55.90625 171.648438 55.804688 171.046875 55.804688 C 170.800781 55.804688 170.492188 55.847656 170.132813 55.9375 C 169.769531 56.027344 169.414063 56.214844 169.070313 56.507813 C 168.726563 56.800781 168.429688 57.214844 168.183594 57.753906 C 167.933594 58.296875 167.808594 59.027344 167.808594 59.945313 M 170.808594 68.410156 C 171.851563 68.410156 172.664063 68.15625 173.25 67.640625 C 173.835938 67.128906 174.125 66.242188 174.125 64.988281 C 173.84375 65.09375 173.5 65.199219 173.09375 65.308594 C 172.683594 65.414063 172.136719 65.464844 171.445313 65.464844 C 170.472656 65.464844 169.617188 65.328125 168.886719 65.054688 C 168.148438 64.78125 167.535156 64.402344 167.039063 63.925781 C 166.542969 63.449219 166.167969 62.878906 165.910156 62.214844 C 165.65625 61.550781 165.527344 60.832031 165.527344 60.050781 C 165.527344 59.167969 165.667969 58.351563 165.953125 57.609375 C 166.234375 56.867188 166.628906 56.226563 167.132813 55.683594 C 167.636719 55.144531 168.238281 54.726563 168.9375 54.425781 C 169.636719 54.125 170.402344 53.972656 171.234375 53.972656 C 172.859375 53.972656 174.121094 54.4375 175.015625 55.367188 C 175.910156 56.296875 176.355469 57.566406 176.355469 59.175781 L 176.355469 64.378906 C 176.355469 65.191406 176.269531 65.949219 176.089844 66.648438 C 175.914063 67.347656 175.617188 67.953125 175.203125 68.464844 C 174.785156 68.976563 174.226563 69.382813 173.527344 69.671875 C 172.828125 69.964844 171.960938 70.109375 170.914063 70.109375 C 170.382813 70.109375 169.8125 70.070313 169.203125 69.992188 C 168.589844 69.910156 168.03125 69.808594 167.519531 69.6875 L 167.835938 67.988281 C 168.242188 68.074219 168.710938 68.167969 169.242188 68.265625 C 169.773438 68.363281 170.292969 68.410156 170.808594 68.410156 "/>
<path style=" stroke:none;fill-rule:nonzero;fill:rgb(0%,65.882874%,52.941895%);fill-opacity:1;" d="M 45.578125 95.539063 C 46.164063 95.539063 46.652344 95.476563 47.039063 95.351563 C 47.429688 95.230469 47.738281 95.039063 47.96875 94.78125 C 48.199219 94.527344 48.363281 94.199219 48.460938 93.800781 C 48.558594 93.402344 48.605469 92.917969 48.605469 92.355469 L 48.605469 91.742188 C 48.605469 91.140625 48.539063 90.59375 48.40625 90.097656 C 48.273438 89.601563 48.03125 89.179688 47.675781 88.824219 C 47.320313 88.46875 46.851563 88.203125 46.257813 88.027344 C 45.664063 87.851563 44.90625 87.761719 43.988281 87.761719 L 42.078125 87.761719 L 42.078125 85.984375 L 44.730469 85.984375 C 46.765625 85.984375 48.28125 86.4375 49.285156 87.351563 C 50.28125 88.261719 50.78125 89.558594 50.78125 91.238281 L 50.78125 92.992188 C 50.78125 93.328125 50.839844 93.644531 50.953125 93.945313 C 51.070313 94.246094 51.234375 94.515625 51.445313 94.753906 C 51.65625 94.996094 51.921875 95.183594 52.242188 95.328125 C 52.5625 95.46875 52.90625 95.539063 53.277344 95.539063 C 53.527344 95.523438 53.714844 95.570313 53.847656 95.683594 C 53.980469 95.800781 54.046875 96.0625 54.046875 96.46875 C 54.046875 96.769531 54.011719 96.984375 53.941406 97.117188 C 53.871094 97.25 53.765625 97.316406 53.621094 97.316406 C 53.355469 97.316406 53.0625 97.285156 52.734375 97.222656 C 52.40625 97.164063 52.082031 97.066406 51.765625 96.933594 C 51.445313 96.800781 51.144531 96.625 50.863281 96.414063 C 50.578125 96.203125 50.339844 95.945313 50.144531 95.644531 C 49.792969 96.195313 49.285156 96.609375 48.632813 96.894531 C 47.976563 97.175781 47.128906 97.316406 46.082031 97.316406 L 40.429688 97.316406 L 40.429688 95.539063 Z M 45.578125 95.539063 "/>
<path style=" stroke:none;fill-rule:nonzero;fill:rgb(0%,65.882874%,52.941895%);fill-opacity:1;" d="M 57.207031 95.539063 C 57.542969 95.539063 57.753906 95.613281 57.84375 95.765625 C 57.933594 95.914063 57.976563 96.148438 57.976563 96.46875 C 57.976563 96.804688 57.9375 97.03125 57.855469 97.144531 C 57.777344 97.261719 57.675781 97.316406 57.550781 97.316406 L 53.621094 97.316406 C 53.179688 97.316406 52.878906 97.25 52.722656 97.117188 C 52.5625 96.984375 52.480469 96.734375 52.480469 96.363281 C 52.480469 95.8125 52.746094 95.539063 53.277344 95.539063 Z M 57.207031 95.539063 "/>
<path style=" stroke:none;fill-rule:nonzero;fill:rgb(0%,65.882874%,52.941895%);fill-opacity:1;" d="M 65.753906 87.683594 C 64.726563 87.683594 63.875 88.179688 63.203125 89.167969 C 62.53125 90.160156 62.132813 91.664063 62.011719 93.679688 C 62.679688 94.300781 63.320313 94.769531 63.921875 95.085938 C 64.523438 95.40625 65.195313 95.566406 65.9375 95.566406 C 66.539063 95.566406 67.035156 95.433594 67.425781 95.167969 C 67.8125 94.902344 68.121094 94.570313 68.339844 94.171875 C 68.5625 93.773438 68.710938 93.347656 68.792969 92.886719 C 68.871094 92.425781 68.910156 91.992188 68.910156 91.582031 C 68.910156 90.238281 68.632813 89.253906 68.074219 88.625 C 67.515625 87.996094 66.742188 87.683594 65.753906 87.683594 M 57.550781 97.316406 C 57.109375 97.316406 56.808594 97.25 56.648438 97.117188 C 56.488281 96.984375 56.410156 96.734375 56.410156 96.363281 C 56.410156 95.8125 56.675781 95.539063 57.207031 95.539063 L 57.898438 95.539063 C 58.460938 95.539063 58.949219 95.339844 59.355469 94.941406 C 59.761719 94.542969 59.984375 94.007813 60.019531 93.335938 C 60.109375 90.910156 60.632813 89.054688 61.597656 87.761719 C 62.5625 86.472656 63.957031 85.824219 65.777344 85.824219 C 66.804688 85.824219 67.660156 85.992188 68.339844 86.328125 C 69.023438 86.664063 69.566406 87.101563 69.972656 87.640625 C 70.378906 88.183594 70.671875 88.789063 70.847656 89.460938 C 71.027344 90.132813 71.117188 90.804688 71.117188 91.476563 C 71.117188 92.167969 71.035156 92.816406 70.875 93.414063 C 70.945313 94.195313 71.246094 94.742188 71.777344 95.0625 C 72.308594 95.378906 72.980469 95.539063 73.796875 95.539063 C 74.148438 95.539063 74.371094 95.613281 74.460938 95.765625 C 74.546875 95.914063 74.589844 96.148438 74.589844 96.46875 C 74.589844 96.804688 74.550781 97.03125 74.472656 97.144531 C 74.390625 97.261719 74.28125 97.316406 74.140625 97.316406 C 73.292969 97.316406 72.488281 97.179688 71.738281 96.90625 C 70.988281 96.632813 70.414063 96.089844 70.027344 95.273438 C 69.566406 95.945313 68.980469 96.472656 68.277344 96.851563 C 67.566406 97.234375 66.761719 97.425781 65.859375 97.425781 C 65.152344 97.425781 64.429688 97.285156 63.695313 97.011719 C 62.960938 96.738281 62.207031 96.265625 61.425781 95.59375 C 61.230469 96.054688 60.921875 96.453125 60.5 96.800781 C 60.074219 97.144531 59.417969 97.316406 58.535156 97.316406 Z M 57.550781 97.316406 "/>
<path style=" stroke:none;fill-rule:nonzero;fill:rgb(0%,65.882874%,52.941895%);fill-opacity:1;" d="M 78.625 82.132813 C 78.625 81.78125 78.742188 81.484375 78.984375 81.246094 C 79.222656 81.007813 79.519531 80.886719 79.875 80.886719 C 80.226563 80.886719 80.519531 81.007813 80.75 81.246094 C 80.980469 81.484375 81.09375 81.78125 81.09375 82.132813 C 81.09375 82.488281 80.980469 82.785156 80.75 83.023438 C 80.519531 83.261719 80.226563 83.382813 79.875 83.382813 C 79.519531 83.382813 79.222656 83.261719 78.984375 83.023438 C 78.742188 82.785156 78.625 82.488281 78.625 82.132813 M 75.308594 82.132813 C 75.308594 81.78125 75.425781 81.484375 75.667969 81.246094 C 75.902344 81.007813 76.199219 80.886719 76.554688 80.886719 C 76.90625 80.886719 77.203125 81.007813 77.429688 81.246094 C 77.660156 81.484375 77.777344 81.78125 77.777344 82.132813 C 77.777344 82.488281 77.660156 82.785156 77.429688 83.023438 C 77.203125 83.261719 76.90625 83.382813 76.554688 83.382813 C 76.199219 83.382813 75.902344 83.261719 75.667969 83.023438 C 75.425781 82.785156 75.308594 82.488281 75.308594 82.132813 M 73.792969 95.539063 C 74.925781 95.539063 75.757813 95.292969 76.289063 94.796875 C 76.820313 94.300781 77.085938 93.488281 77.085938 92.351563 L 77.085938 85.984375 L 79.261719 85.984375 L 79.261719 92.992188 C 79.261719 93.859375 79.519531 94.5 80.03125 94.914063 C 80.546875 95.332031 81.261719 95.539063 82.183594 95.539063 C 82.480469 95.539063 82.6875 95.605469 82.792969 95.738281 C 82.898438 95.871094 82.949219 96.113281 82.949219 96.46875 C 82.949219 96.769531 82.917969 96.984375 82.84375 97.117188 C 82.773438 97.25 82.667969 97.316406 82.527344 97.316406 C 81.679688 97.316406 80.90625 97.179688 80.21875 96.90625 C 79.527344 96.632813 78.988281 96.175781 78.597656 95.539063 C 77.804688 96.722656 76.316406 97.316406 74.140625 97.316406 C 73.699219 97.316406 73.398438 97.25 73.238281 97.117188 C 73.078125 96.984375 73 96.734375 73 96.363281 C 73 95.8125 73.265625 95.539063 73.792969 95.539063 "/>
<path style=" stroke:none;fill-rule:nonzero;fill:rgb(0%,65.882874%,52.941895%);fill-opacity:1;" d="M 89.164063 87.65625 C 88.738281 87.65625 88.324219 87.695313 87.914063 87.777344 C 87.507813 87.855469 87.140625 87.949219 86.816406 88.054688 C 86.488281 88.160156 86.199219 88.277344 85.953125 88.398438 C 85.703125 88.523438 85.527344 88.621094 85.421875 88.691406 C 86.324219 89.558594 87.089844 90.433594 87.714844 91.320313 C 88.34375 92.203125 88.960938 93.140625 89.5625 94.132813 C 90.480469 93.476563 91.195313 92.78125 91.710938 92.046875 C 92.226563 91.316406 92.480469 90.679688 92.480469 90.152344 C 92.480469 88.488281 91.375 87.65625 89.164063 87.65625 M 93.4375 97.316406 C 92.496094 97.316406 91.699219 97.21875 91.035156 97.027344 C 90.371094 96.832031 89.808594 96.582031 89.351563 96.28125 C 88.675781 96.582031 87.941406 96.832031 87.144531 97.027344 C 86.351563 97.21875 85.527344 97.316406 84.679688 97.316406 L 82.527344 97.316406 C 82.121094 97.316406 81.828125 97.253906 81.652344 97.132813 C 81.476563 97.007813 81.386719 96.777344 81.386719 96.441406 C 81.386719 96.15625 81.433594 95.9375 81.53125 95.777344 C 81.628906 95.617188 81.847656 95.539063 82.183594 95.539063 L 84.996094 95.539063 C 86.09375 95.539063 87.09375 95.363281 87.996094 95.007813 C 87.375 94.050781 86.726563 93.113281 86.046875 92.195313 C 85.363281 91.273438 84.484375 90.425781 83.402344 89.648438 C 83.441406 89.273438 83.5 88.875 83.589844 88.453125 C 83.675781 88.027344 83.773438 87.679688 83.882813 87.417969 C 84.164063 87.238281 84.507813 87.058594 84.914063 86.871094 C 85.324219 86.6875 85.765625 86.515625 86.242188 86.355469 C 86.722656 86.195313 87.226563 86.066406 87.753906 85.96875 C 88.289063 85.871094 88.835938 85.824219 89.402344 85.824219 C 91.117188 85.824219 92.433594 86.183594 93.34375 86.898438 C 94.253906 87.617188 94.710938 88.601563 94.710938 89.859375 C 94.710938 90.796875 94.378906 91.730469 93.714844 92.660156 C 93.050781 93.589844 92.171875 94.449219 91.074219 95.246094 C 91.660156 95.441406 92.394531 95.539063 93.277344 95.539063 L 96.25 95.539063 C 96.601563 95.539063 96.820313 95.625 96.902344 95.789063 C 96.980469 95.960938 97.019531 96.183594 97.019531 96.46875 C 97.019531 96.785156 96.980469 97.007813 96.902344 97.132813 C 96.820313 97.253906 96.71875 97.316406 96.597656 97.316406 Z M 93.4375 97.316406 "/>
<path style=" stroke:none;fill-rule:nonzero;fill:rgb(0%,65.882874%,52.941895%);fill-opacity:1;" d="M 104.824219 87.683594 C 103.796875 87.683594 102.945313 88.179688 102.273438 89.167969 C 101.601563 90.160156 101.203125 91.664063 101.082031 93.679688 C 101.753906 94.300781 102.390625 94.769531 102.992188 95.085938 C 103.59375 95.40625 104.265625 95.566406 105.011719 95.566406 C 105.609375 95.566406 106.105469 95.433594 106.496094 95.167969 C 106.882813 94.902344 107.191406 94.570313 107.410156 94.171875 C 107.632813 93.773438 107.78125 93.347656 107.863281 92.886719 C 107.941406 92.425781 107.980469 91.992188 107.980469 91.582031 C 107.980469 90.238281 107.703125 89.253906 107.144531 88.625 C 106.589844 87.996094 105.8125 87.683594 104.824219 87.683594 M 96.59375 97.316406 C 96.152344 97.316406 95.851563 97.25 95.691406 97.117188 C 95.53125 96.984375 95.453125 96.734375 95.453125 96.363281 C 95.453125 95.8125 95.71875 95.539063 96.25 95.539063 L 96.96875 95.539063 C 97.515625 95.539063 97.996094 95.34375 98.414063 94.953125 C 98.828125 94.566406 99.054688 94.027344 99.089844 93.335938 C 99.179688 90.984375 99.703125 89.140625 100.667969 87.816406 C 101.632813 86.488281 103.027344 85.824219 104.847656 85.824219 C 105.875 85.824219 106.730469 85.992188 107.410156 86.328125 C 108.09375 86.664063 108.636719 87.101563 109.042969 87.640625 C 109.449219 88.183594 109.738281 88.789063 109.90625 89.460938 C 110.074219 90.132813 110.160156 90.804688 110.160156 91.476563 C 110.160156 92.328125 110.035156 93.113281 109.785156 93.839844 C 109.539063 94.566406 109.1875 95.195313 108.738281 95.726563 C 108.285156 96.257813 107.738281 96.671875 107.09375 96.972656 C 106.449219 97.273438 105.726563 97.425781 104.929688 97.425781 C 104.203125 97.425781 103.480469 97.285156 102.75 97.011719 C 102.027344 96.738281 101.277344 96.265625 100.496094 95.59375 C 100.300781 96.054688 99.992188 96.453125 99.570313 96.800781 C 99.144531 97.144531 98.488281 97.316406 97.605469 97.316406 Z M 96.59375 97.316406 "/>
<path style=" stroke:none;fill-rule:nonzero;fill:rgb(0%,65.882874%,52.941895%);fill-opacity:1;" d="M 52.132813 114.285156 C 51.683594 114.019531 51.152344 113.816406 50.539063 113.671875 C 49.925781 113.53125 49.285156 113.460938 48.628906 113.460938 C 47.4375 113.480469 46.414063 113.6875 45.554688 114.082031 C 44.699219 114.484375 43.988281 115.039063 43.429688 115.757813 C 42.867188 116.472656 42.441406 117.3125 42.15625 118.277344 C 41.875 119.242188 41.730469 120.28125 41.730469 121.398438 C 41.730469 122.457031 41.875 123.464844 42.171875 124.410156 C 42.464844 125.355469 42.894531 126.179688 43.453125 126.878906 C 44.015625 127.578125 44.730469 128.136719 45.59375 128.550781 C 46.460938 128.964844 47.453125 129.175781 48.582031 129.175781 C 49.375 129.175781 50.070313 129.097656 50.667969 128.949219 C 51.265625 128.800781 51.839844 128.574219 52.390625 128.273438 L 53.042969 130.078125 C 52.382813 130.449219 51.660156 130.714844 50.875 130.871094 C 50.085938 131.03125 49.28125 131.113281 48.449219 131.113281 C 47.046875 131.113281 45.789063 130.871094 44.671875 130.394531 C 43.558594 129.917969 42.613281 129.234375 41.832031 128.351563 C 41.054688 127.46875 40.464844 126.4375 40.070313 125.261719 C 39.671875 124.082031 39.472656 122.785156 39.472656 121.371094 C 39.472656 119.9375 39.671875 118.621094 40.070313 117.429688 C 40.464844 116.234375 41.054688 115.195313 41.832031 114.308594 C 42.613281 113.425781 43.566406 112.738281 44.699219 112.253906 C 45.832031 111.765625 47.132813 111.523438 48.605469 111.523438 C 49.382813 111.523438 50.148438 111.597656 50.902344 111.75 C 51.65625 111.898438 52.296875 112.132813 52.832031 112.453125 Z M 52.132813 114.285156 "/>
<path style=" stroke:none;fill-rule:nonzero;fill:rgb(0%,65.882874%,52.941895%);fill-opacity:1;" d="M 60.851563 118.238281 C 59.65625 118.238281 58.710938 118.636719 58.007813 119.433594 C 57.308594 120.230469 56.898438 121.289063 56.777344 122.617188 L 64.507813 122.617188 L 64.507813 122.511719 C 64.492188 121.167969 64.152344 120.125 63.496094 119.378906 C 62.839844 118.636719 61.957031 118.257813 60.851563 118.238281 M 56.777344 124.398438 C 56.84375 125.867188 57.304688 127.054688 58.152344 127.964844 C 59 128.878906 60.175781 129.332031 61.679688 129.332031 C 62.285156 129.332031 62.910156 129.277344 63.550781 129.160156 C 64.1875 129.046875 64.777344 128.875 65.3125 128.644531 L 65.675781 130.367188 C 65.105469 130.617188 64.460938 130.800781 63.746094 130.925781 C 63.023438 131.050781 62.304688 131.113281 61.578125 131.113281 C 60.4375 131.09375 59.445313 130.914063 58.605469 130.570313 C 57.769531 130.222656 57.042969 129.714844 56.441406 129.042969 C 55.835938 128.371094 55.382813 127.585938 55.089844 126.691406 C 54.796875 125.800781 54.648438 124.839844 54.648438 123.8125 C 54.648438 122.75 54.792969 121.773438 55.078125 120.878906 C 55.363281 119.988281 55.773438 119.207031 56.3125 118.542969 C 56.84375 117.878906 57.496094 117.367188 58.253906 117.003906 C 59.019531 116.640625 59.875 116.460938 60.824219 116.460938 C 61.777344 116.460938 62.609375 116.625 63.328125 116.953125 C 64.042969 117.28125 64.640625 117.738281 65.105469 118.332031 C 65.574219 118.925781 65.921875 119.644531 66.15625 120.496094 C 66.390625 121.34375 66.507813 122.28125 66.507813 123.308594 L 66.507813 124.398438 Z M 56.777344 124.398438 "/>
<path style=" stroke:none;fill-rule:nonzero;fill:rgb(0%,65.882874%,52.941895%);fill-opacity:1;" d="M 76.675781 118.316406 C 76.367188 118.265625 75.984375 118.238281 75.535156 118.238281 C 75.066406 118.238281 74.640625 118.3125 74.253906 118.464844 C 73.863281 118.613281 73.515625 118.863281 73.214844 119.207031 C 72.910156 119.550781 72.675781 120 72.511719 120.546875 C 72.347656 121.097656 72.269531 121.777344 72.269531 122.589844 L 72.269531 130.792969 L 70.0625 130.792969 L 70.0625 116.777344 L 72.1875 116.777344 L 72.1875 118.664063 L 72.214844 118.664063 C 72.542969 117.917969 73 117.367188 73.589844 117.003906 C 74.175781 116.640625 74.914063 116.460938 75.796875 116.460938 C 75.917969 116.460938 76.082031 116.464844 76.289063 116.472656 C 76.496094 116.484375 76.660156 116.496094 76.78125 116.511719 Z M 76.675781 118.316406 "/>
<path style=" stroke:none;fill-rule:nonzero;fill:rgb(0%,65.882874%,52.941895%);fill-opacity:1;" d="M 77.792969 116.777344 L 80.230469 116.777344 L 80.230469 113.25 L 82.4375 113.25 L 82.4375 116.777344 L 85.601563 116.777344 L 85.601563 118.558594 L 82.4375 118.558594 L 82.4375 126.945313 C 82.4375 127.421875 82.453125 127.808594 82.488281 128.097656 C 82.523438 128.390625 82.601563 128.621094 82.722656 128.789063 C 82.839844 128.957031 83.019531 129.066406 83.253906 129.121094 C 83.488281 129.175781 83.792969 129.199219 84.175781 129.199219 C 84.46875 129.199219 84.722656 129.191406 84.941406 129.175781 C 85.15625 129.15625 85.382813 129.132813 85.628906 129.09375 L 85.628906 130.792969 C 85.382813 130.828125 85.070313 130.867188 84.679688 130.914063 C 84.292969 130.957031 83.914063 130.980469 83.550781 130.980469 C 82.839844 130.980469 82.273438 130.894531 81.839844 130.726563 C 81.410156 130.558594 81.070313 130.300781 80.828125 129.957031 C 80.585938 129.613281 80.425781 129.199219 80.347656 128.722656 C 80.269531 128.246094 80.230469 127.695313 80.230469 127.078125 L 80.230469 118.558594 L 77.792969 118.558594 Z M 77.792969 116.777344 "/>
<path style=" stroke:none;fill-rule:nonzero;fill:rgb(0%,65.882874%,52.941895%);fill-opacity:1;" d="M 90.84375 130.792969 L 88.636719 130.792969 L 88.636719 116.777344 L 90.84375 116.777344 Z M 90.921875 113.832031 L 88.558594 113.832031 L 88.558594 111.496094 L 90.921875 111.496094 Z M 90.921875 113.832031 "/>
<path style=" stroke:none;fill-rule:nonzero;fill:rgb(0%,65.882874%,52.941895%);fill-opacity:1;" d="M 105.605469 113.355469 C 104.984375 113.25 104.363281 113.171875 103.75 113.128906 C 103.136719 113.085938 102.492188 113.0625 101.816406 113.0625 C 100.625 113.0625 99.746094 113.296875 99.183594 113.765625 C 98.621094 114.234375 98.339844 114.992188 98.339844 116.035156 L 98.339844 116.777344 L 106.023438 116.777344 L 106.023438 130.792969 L 103.84375 130.792969 L 103.84375 118.558594 L 98.339844 118.558594 L 98.339844 130.792969 L 96.160156 130.792969 L 96.160156 118.558594 L 93.359375 118.558594 L 93.359375 116.777344 L 96.160156 116.777344 L 96.160156 115.691406 C 96.160156 115.019531 96.269531 114.40625 96.484375 113.859375 C 96.703125 113.3125 97.03125 112.847656 97.472656 112.464844 C 97.910156 112.085938 98.496094 111.792969 99.222656 111.589844 C 99.949219 111.386719 100.796875 111.285156 101.765625 111.285156 C 102.5625 111.285156 103.300781 111.316406 103.984375 111.378906 C 104.667969 111.4375 105.257813 111.515625 105.761719 111.601563 Z M 105.605469 113.355469 "/>
<path style=" stroke:none;fill-rule:nonzero;fill:rgb(0%,65.882874%,52.941895%);fill-opacity:1;" d="M 115.828125 118.238281 C 114.632813 118.238281 113.6875 118.636719 112.984375 119.433594 C 112.285156 120.230469 111.875 121.289063 111.753906 122.617188 L 119.484375 122.617188 L 119.484375 122.511719 C 119.46875 121.167969 119.132813 120.125 118.476563 119.378906 C 117.816406 118.636719 116.933594 118.257813 115.828125 118.238281 M 111.753906 124.398438 C 111.824219 125.867188 112.28125 127.054688 113.128906 127.964844 C 113.976563 128.878906 115.152344 129.332031 116.660156 129.332031 C 117.261719 129.332031 117.886719 129.277344 118.527344 129.160156 C 119.164063 129.046875 119.753906 128.875 120.289063 128.644531 L 120.652344 130.367188 C 120.082031 130.617188 119.4375 130.800781 118.71875 130.925781 C 118.003906 131.050781 117.28125 131.113281 116.554688 131.113281 C 115.414063 131.09375 114.421875 130.914063 113.582031 130.570313 C 112.746094 130.222656 112.023438 129.714844 111.417969 129.042969 C 110.8125 128.371094 110.359375 127.585938 110.066406 126.691406 C 109.773438 125.800781 109.628906 124.839844 109.628906 123.8125 C 109.628906 122.75 109.769531 121.773438 110.054688 120.878906 C 110.339844 119.988281 110.75 119.207031 111.285156 118.542969 C 111.824219 117.878906 112.46875 117.367188 113.234375 117.003906 C 113.992188 116.640625 114.851563 116.460938 115.800781 116.460938 C 116.753906 116.460938 117.585938 116.625 118.308594 116.953125 C 119.023438 117.28125 119.617188 117.738281 120.082031 118.332031 C 120.546875 118.925781 120.898438 119.644531 121.132813 120.496094 C 121.367188 121.34375 121.484375 122.28125 121.484375 123.308594 L 121.484375 124.398438 Z M 111.753906 124.398438 "/>
<path style=" stroke:none;fill-rule:nonzero;fill:rgb(0%,65.882874%,52.941895%);fill-opacity:1;" d="M 126.414063 123.757813 C 126.414063 124.519531 126.496094 125.238281 126.660156 125.910156 C 126.824219 126.582031 127.066406 127.167969 127.386719 127.675781 C 127.707031 128.179688 128.113281 128.582031 128.605469 128.882813 C 129.097656 129.183594 129.671875 129.332031 130.332031 129.332031 C 130.988281 129.332031 131.570313 129.1875 132.082031 128.894531 C 132.59375 128.601563 133.023438 128.207031 133.378906 127.703125 C 133.734375 127.199219 134 126.609375 134.183594 125.9375 C 134.367188 125.261719 134.457031 124.539063 134.457031 123.757813 C 134.457031 122.980469 134.367188 122.257813 134.183594 121.582031 C 134 120.910156 133.734375 120.328125 133.378906 119.832031 C 133.023438 119.335938 132.59375 118.945313 132.082031 118.664063 C 131.570313 118.378906 130.988281 118.238281 130.332031 118.238281 C 129.691406 118.238281 129.121094 118.382813 128.621094 118.675781 C 128.117188 118.96875 127.707031 119.367188 127.386719 119.871094 C 127.066406 120.375 126.824219 120.957031 126.660156 121.621094 C 126.496094 122.285156 126.414063 123 126.414063 123.757813 M 134.324219 111.285156 L 136.53125 111.285156 L 136.53125 130.792969 L 134.40625 130.792969 L 134.40625 128.667969 L 134.351563 128.667969 C 133.816406 129.484375 133.167969 130.09375 132.40625 130.5 C 131.644531 130.90625 130.839844 131.113281 129.992188 131.113281 C 129.09375 131.113281 128.285156 130.921875 127.570313 130.542969 C 126.851563 130.160156 126.246094 129.644531 125.753906 128.988281 C 125.257813 128.332031 124.878906 127.554688 124.609375 126.652344 C 124.34375 125.75 124.207031 124.785156 124.207031 123.757813 C 124.207031 122.734375 124.347656 121.773438 124.625 120.878906 C 124.902344 119.988281 125.289063 119.214844 125.789063 118.570313 C 126.289063 117.925781 126.90625 117.410156 127.632813 117.03125 C 128.359375 116.652344 129.171875 116.460938 130.074219 116.460938 C 130.917969 116.460938 131.695313 116.632813 132.394531 116.976563 C 133.09375 117.324219 133.722656 117.894531 134.273438 118.691406 L 134.324219 118.691406 Z M 134.324219 111.285156 "/>
<path style=" stroke:none;fill-rule:nonzero;fill:rgb(0%,65.882874%,52.941895%);fill-opacity:1;" d="M 42.558594 152.1875 L 46.140625 152.1875 C 47.421875 152.1875 48.410156 151.921875 49.113281 151.390625 C 49.8125 150.859375 50.167969 150.007813 50.1875 148.84375 C 50.1875 148.1875 50.078125 147.648438 49.863281 147.222656 C 49.648438 146.796875 49.347656 146.464844 48.96875 146.226563 C 48.585938 145.988281 48.167969 145.828125 47.710938 145.75 C 47.25 145.671875 46.78125 145.628906 46.292969 145.628906 L 42.558594 145.628906 Z M 40.300781 143.691406 L 46.683594 143.691406 C 47.496094 143.691406 48.257813 143.789063 48.96875 143.984375 C 49.675781 144.179688 50.289063 144.480469 50.808594 144.886719 C 51.328125 145.292969 51.730469 145.820313 52.019531 146.464844 C 52.300781 147.113281 52.445313 147.859375 52.445313 148.710938 C 52.445313 149.789063 52.15625 150.71875 51.574219 151.496094 C 50.996094 152.273438 50.144531 152.816406 49.019531 153.117188 L 49.019531 153.167969 C 49.730469 153.34375 50.277344 153.699219 50.667969 154.230469 C 51.054688 154.761719 51.40625 155.59375 51.71875 156.726563 C 52.03125 157.804688 52.320313 158.800781 52.585938 159.710938 C 52.855469 160.625 53.144531 161.601563 53.457031 162.644531 L 51.042969 162.644531 C 50.941406 162.273438 50.824219 161.835938 50.695313 161.332031 C 50.566406 160.828125 50.433594 160.316406 50.304688 159.804688 C 50.175781 159.289063 50.042969 158.796875 49.914063 158.316406 C 49.785156 157.839844 49.675781 157.441406 49.589844 157.125 C 49.4375 156.574219 49.269531 156.101563 49.085938 155.703125 C 48.902344 155.304688 48.667969 154.992188 48.386719 154.761719 C 48.097656 154.53125 47.730469 154.367188 47.28125 154.269531 C 46.832031 154.171875 46.25 154.125 45.542969 154.125 L 42.558594 154.125 L 42.558594 162.644531 L 40.300781 162.644531 Z M 40.300781 143.691406 "/>
<path style=" stroke:none;fill-rule:nonzero;fill:rgb(0%,65.882874%,52.941895%);fill-opacity:1;" d="M 61.835938 150.089844 C 60.644531 150.089844 59.695313 150.488281 58.996094 151.285156 C 58.296875 152.082031 57.882813 153.144531 57.761719 154.46875 L 65.496094 154.46875 L 65.496094 154.363281 C 65.476563 153.019531 65.140625 151.972656 64.484375 151.230469 C 63.824219 150.488281 62.941406 150.109375 61.835938 150.089844 M 57.761719 156.246094 C 57.832031 157.71875 58.289063 158.90625 59.136719 159.816406 C 59.988281 160.730469 61.164063 161.1875 62.667969 161.1875 C 63.273438 161.1875 63.894531 161.125 64.535156 161.011719 C 65.175781 160.898438 65.761719 160.722656 66.296875 160.496094 L 66.664063 162.21875 C 66.09375 162.46875 65.445313 162.652344 64.726563 162.777344 C 64.011719 162.902344 63.289063 162.964844 62.5625 162.964844 C 61.421875 162.945313 60.429688 162.761719 59.589844 162.417969 C 58.753906 162.074219 58.03125 161.566406 57.425781 160.894531 C 56.820313 160.21875 56.371094 159.4375 56.078125 158.542969 C 55.78125 157.652344 55.636719 156.691406 55.636719 155.664063 C 55.636719 154.601563 55.78125 153.625 56.0625 152.730469 C 56.347656 151.835938 56.757813 151.058594 57.292969 150.394531 C 57.832031 149.730469 58.480469 149.21875 59.242188 148.855469 C 60.003906 148.492188 60.859375 148.3125 61.808594 148.3125 C 62.761719 148.3125 63.59375 148.476563 64.316406 148.800781 C 65.03125 149.128906 65.625 149.589844 66.09375 150.183594 C 66.558594 150.777344 66.910156 151.496094 67.140625 152.347656 C 67.375 153.195313 67.492188 154.132813 67.492188 155.160156 L 67.492188 156.246094 Z M 57.761719 156.246094 "/>
<path style=" stroke:none;fill-rule:nonzero;fill:rgb(0%,65.882874%,52.941895%);fill-opacity:1;" d="M 78.3125 155.53125 C 77.53125 155.53125 76.785156 155.574219 76.066406 155.664063 C 75.347656 155.753906 74.71875 155.902344 74.171875 156.117188 C 73.628906 156.328125 73.183594 156.640625 72.835938 157.058594 C 72.488281 157.472656 72.316406 157.992188 72.316406 158.609375 C 72.300781 159.355469 72.503906 159.96875 72.929688 160.453125 C 73.351563 160.941406 73.988281 161.183594 74.835938 161.183594 C 75.507813 161.183594 76.105469 161.066406 76.625 160.828125 C 77.144531 160.589844 77.570313 160.261719 77.90625 159.84375 C 78.246094 159.429688 78.5 158.957031 78.675781 158.425781 C 78.847656 157.894531 78.933594 157.328125 78.933594 156.726563 L 78.933594 155.53125 Z M 78.933594 153.566406 C 78.96875 151.25 77.863281 150.089844 75.613281 150.089844 C 75.058594 150.089844 74.480469 150.160156 73.875 150.300781 C 73.269531 150.445313 72.679688 150.648438 72.109375 150.914063 L 71.617188 149.136719 C 72.152344 148.90625 72.796875 148.710938 73.550781 148.550781 C 74.300781 148.390625 75.023438 148.308594 75.714844 148.308594 C 77.375 148.292969 78.691406 148.699219 79.660156 149.53125 C 80.628906 150.363281 81.121094 151.628906 81.136719 153.328125 L 81.136719 159.460938 C 81.136719 159.921875 81.160156 160.445313 81.203125 161.039063 C 81.246094 161.632813 81.3125 162.167969 81.398438 162.644531 L 79.453125 162.644531 C 79.296875 162.058594 79.191406 161.363281 79.140625 160.546875 L 79.089844 160.546875 C 78.710938 161.238281 78.164063 161.808594 77.457031 162.261719 C 76.746094 162.710938 75.828125 162.945313 74.707031 162.964844 C 74.132813 162.964844 73.578125 162.882813 73.042969 162.722656 C 72.507813 162.566406 72.027344 162.3125 71.605469 161.96875 C 71.179688 161.621094 70.839844 161.183594 70.582031 160.652344 C 70.320313 160.121094 70.191406 159.484375 70.191406 158.742188 C 70.207031 157.734375 70.441406 156.917969 70.890625 156.289063 C 71.339844 155.660156 71.976563 155.167969 72.796875 154.8125 C 73.617188 154.460938 74.554688 154.222656 75.601563 154.097656 C 76.648438 153.972656 77.757813 153.910156 78.933594 153.910156 Z M 78.933594 153.566406 "/>
<path style=" stroke:none;fill-rule:nonzero;fill:rgb(0%,65.882874%,52.941895%);fill-opacity:1;" d="M 87.625 162.644531 L 85.421875 162.644531 L 85.421875 143.136719 L 87.625 143.136719 Z M 87.625 162.644531 "/>
<path style=" stroke:none;fill-rule:nonzero;fill:rgb(0%,65.882874%,52.941895%);fill-opacity:1;" d="M 104.179688 150.089844 C 102.984375 150.089844 102.039063 150.488281 101.339844 151.285156 C 100.636719 152.082031 100.226563 153.144531 100.105469 154.46875 L 107.835938 154.46875 L 107.835938 154.363281 C 107.820313 153.019531 107.480469 151.972656 106.824219 151.230469 C 106.167969 150.488281 105.285156 150.109375 104.179688 150.089844 M 100.105469 156.246094 C 100.171875 157.71875 100.632813 158.90625 101.480469 159.816406 C 102.328125 160.730469 103.503906 161.1875 105.007813 161.1875 C 105.617188 161.1875 106.234375 161.125 106.875 161.011719 C 107.515625 160.898438 108.105469 160.722656 108.640625 160.496094 L 109.003906 162.21875 C 108.433594 162.46875 107.789063 162.652344 107.070313 162.777344 C 106.351563 162.902344 105.632813 162.964844 104.90625 162.964844 C 103.761719 162.945313 102.773438 162.761719 101.933594 162.417969 C 101.09375 162.074219 100.371094 161.566406 99.765625 160.894531 C 99.160156 160.21875 98.714844 159.4375 98.417969 158.542969 C 98.125 157.652344 97.976563 156.691406 97.976563 155.664063 C 97.976563 154.601563 98.121094 153.625 98.40625 152.730469 C 98.691406 151.835938 99.101563 151.058594 99.636719 150.394531 C 100.171875 149.730469 100.824219 149.21875 101.582031 148.855469 C 102.347656 148.492188 103.199219 148.3125 104.152344 148.3125 C 105.101563 148.3125 105.9375 148.476563 106.65625 148.800781 C 107.375 149.128906 107.96875 149.589844 108.433594 150.183594 C 108.902344 150.777344 109.25 151.496094 109.484375 152.347656 C 109.71875 153.195313 109.835938 154.132813 109.835938 155.160156 L 109.835938 156.246094 Z M 100.105469 156.246094 "/>
<path style=" stroke:none;fill-rule:nonzero;fill:rgb(0%,65.882874%,52.941895%);fill-opacity:1;" d="M 120.886719 150.808594 C 120.332031 150.542969 119.777344 150.355469 119.214844 150.25 C 118.652344 150.144531 118.074219 150.089844 117.488281 150.089844 C 117.175781 150.089844 116.871094 150.121094 116.566406 150.183594 C 116.265625 150.246094 115.988281 150.347656 115.738281 150.488281 C 115.484375 150.628906 115.28125 150.828125 115.125 151.085938 C 114.972656 151.34375 114.894531 151.65625 114.894531 152.027344 C 114.894531 152.328125 114.941406 152.59375 115.035156 152.824219 C 115.128906 153.054688 115.292969 153.269531 115.527344 153.472656 C 115.761719 153.675781 116.0625 153.871094 116.421875 154.058594 C 116.785156 154.242188 117.246094 154.445313 117.800781 154.65625 C 118.457031 154.90625 119.042969 155.160156 119.566406 155.425781 C 120.082031 155.691406 120.53125 155.988281 120.910156 156.3125 C 121.292969 156.640625 121.582031 157.027344 121.78125 157.46875 C 121.980469 157.910156 122.082031 158.425781 122.082031 159.007813 C 122.082031 159.75 121.933594 160.378906 121.636719 160.890625 C 121.34375 161.40625 120.960938 161.8125 120.484375 162.113281 C 120.007813 162.414063 119.472656 162.632813 118.875 162.761719 C 118.28125 162.898438 117.679688 162.964844 117.074219 162.964844 C 116.398438 162.964844 115.644531 162.882813 114.816406 162.722656 C 113.984375 162.566406 113.207031 162.308594 112.480469 161.953125 L 113.054688 160.175781 C 113.777344 160.511719 114.496094 160.761719 115.203125 160.933594 C 115.914063 161.101563 116.554688 161.183594 117.125 161.183594 C 117.917969 161.203125 118.582031 161.054688 119.109375 160.746094 C 119.636719 160.4375 119.910156 159.902344 119.929688 159.140625 C 119.910156 158.488281 119.625 157.949219 119.070313 157.535156 C 118.519531 157.121094 117.695313 156.714844 116.605469 156.328125 C 115.375 155.882813 114.4375 155.34375 113.777344 154.707031 C 113.121094 154.074219 112.78125 153.257813 112.765625 152.265625 C 112.78125 151.558594 112.925781 150.960938 113.195313 150.476563 C 113.460938 149.988281 113.820313 149.585938 114.269531 149.265625 C 114.71875 148.949219 115.222656 148.710938 115.777344 148.550781 C 116.328125 148.390625 116.898438 148.308594 117.488281 148.308594 C 118.214844 148.308594 118.921875 148.375 119.617188 148.496094 C 120.308594 148.621094 120.902344 148.816406 121.40625 149.082031 Z M 120.886719 150.808594 "/>
<path style=" stroke:none;fill-rule:nonzero;fill:rgb(0%,65.882874%,52.941895%);fill-opacity:1;" d="M 123.898438 148.628906 L 126.335938 148.628906 L 126.335938 145.097656 L 128.539063 145.097656 L 128.539063 148.628906 L 131.707031 148.628906 L 131.707031 150.40625 L 128.539063 150.40625 L 128.539063 158.796875 C 128.539063 159.273438 128.558594 159.660156 128.59375 159.949219 C 128.625 160.242188 128.703125 160.472656 128.824219 160.640625 C 128.945313 160.808594 129.125 160.917969 129.355469 160.972656 C 129.589844 161.027344 129.898438 161.050781 130.277344 161.050781 C 130.574219 161.050781 130.828125 161.042969 131.042969 161.027344 C 131.261719 161.007813 131.488281 160.984375 131.730469 160.945313 L 131.730469 162.644531 C 131.488281 162.679688 131.175781 162.71875 130.785156 162.761719 C 130.394531 162.808594 130.019531 162.832031 129.65625 162.832031 C 128.945313 162.832031 128.375 162.746094 127.945313 162.578125 C 127.511719 162.410156 127.171875 162.152344 126.933594 161.808594 C 126.6875 161.464844 126.527344 161.050781 126.453125 160.574219 C 126.375 160.097656 126.335938 159.546875 126.335938 158.925781 L 126.335938 150.40625 L 123.898438 150.40625 Z M 123.898438 148.628906 "/>
<path style=" stroke:none;fill-rule:nonzero;fill:rgb(0%,65.882874%,52.941895%);fill-opacity:1;" d="M 141.851563 155.53125 C 141.074219 155.53125 140.324219 155.574219 139.605469 155.664063 C 138.886719 155.753906 138.257813 155.902344 137.710938 156.117188 C 137.167969 156.328125 136.722656 156.640625 136.375 157.058594 C 136.03125 157.472656 135.855469 157.992188 135.855469 158.609375 C 135.839844 159.355469 136.042969 159.96875 136.464844 160.453125 C 136.890625 160.941406 137.527344 161.183594 138.375 161.183594 C 139.046875 161.183594 139.644531 161.066406 140.164063 160.828125 C 140.683594 160.589844 141.109375 160.261719 141.449219 159.84375 C 141.785156 159.429688 142.039063 158.957031 142.214844 158.425781 C 142.386719 157.894531 142.472656 157.328125 142.472656 156.726563 L 142.472656 155.53125 Z M 142.472656 153.566406 C 142.507813 151.25 141.398438 150.089844 139.148438 150.089844 C 138.597656 150.089844 138.019531 150.160156 137.414063 150.300781 C 136.808594 150.445313 136.21875 150.648438 135.648438 150.914063 L 135.15625 149.136719 C 135.691406 148.90625 136.335938 148.710938 137.089844 148.550781 C 137.839844 148.390625 138.5625 148.308594 139.257813 148.308594 C 140.914063 148.292969 142.230469 148.699219 143.199219 149.53125 C 144.167969 150.363281 144.660156 151.628906 144.679688 153.328125 L 144.679688 159.460938 C 144.679688 159.921875 144.699219 160.445313 144.742188 161.039063 C 144.785156 161.632813 144.851563 162.167969 144.9375 162.644531 L 142.992188 162.644531 C 142.835938 162.058594 142.730469 161.363281 142.679688 160.546875 L 142.628906 160.546875 C 142.25 161.238281 141.703125 161.808594 140.992188 162.261719 C 140.28125 162.710938 139.371094 162.945313 138.246094 162.964844 C 137.671875 162.964844 137.121094 162.882813 136.582031 162.722656 C 136.046875 162.566406 135.566406 162.3125 135.144531 161.96875 C 134.71875 161.621094 134.378906 161.183594 134.117188 160.652344 C 133.859375 160.121094 133.726563 159.484375 133.726563 158.742188 C 133.746094 157.734375 133.980469 156.917969 134.429688 156.289063 C 134.878906 155.660156 135.515625 155.167969 136.335938 154.8125 C 137.160156 154.460938 138.09375 154.222656 139.140625 154.097656 C 140.183594 153.972656 141.296875 153.910156 142.472656 153.910156 Z M 142.472656 153.566406 "/>
<path style=" stroke:none;fill-rule:nonzero;fill:rgb(0%,65.882874%,52.941895%);fill-opacity:1;" d="M 147.089844 148.628906 L 149.53125 148.628906 L 149.53125 145.097656 L 151.734375 145.097656 L 151.734375 148.628906 L 154.898438 148.628906 L 154.898438 150.40625 L 151.734375 150.40625 L 151.734375 158.796875 C 151.734375 159.273438 151.753906 159.660156 151.785156 159.949219 C 151.820313 160.242188 151.898438 160.472656 152.019531 160.640625 C 152.140625 160.808594 152.320313 160.917969 152.550781 160.972656 C 152.785156 161.027344 153.09375 161.050781 153.472656 161.050781 C 153.765625 161.050781 154.019531 161.042969 154.238281 161.027344 C 154.453125 161.007813 154.683594 160.984375 154.925781 160.945313 L 154.925781 162.644531 C 154.683594 162.679688 154.367188 162.71875 153.976563 162.761719 C 153.589844 162.808594 153.214844 162.832031 152.851563 162.832031 C 152.140625 162.832031 151.570313 162.746094 151.136719 162.578125 C 150.707031 162.410156 150.367188 162.152344 150.125 161.808594 C 149.882813 161.464844 149.722656 161.050781 149.644531 160.574219 C 149.570313 160.097656 149.53125 159.546875 149.53125 158.925781 L 149.53125 150.40625 L 147.089844 150.40625 Z M 147.089844 148.628906 "/>
<path style=" stroke:none;fill-rule:nonzero;fill:rgb(0%,65.882874%,52.941895%);fill-opacity:1;" d="M 163.175781 150.089844 C 161.984375 150.089844 161.035156 150.488281 160.335938 151.285156 C 159.636719 152.082031 159.222656 153.144531 159.105469 154.46875 L 166.835938 154.46875 L 166.835938 154.363281 C 166.816406 153.019531 166.480469 151.972656 165.824219 151.230469 C 165.167969 150.488281 164.28125 150.109375 163.175781 150.089844 M 159.105469 156.246094 C 159.171875 157.71875 159.632813 158.90625 160.476563 159.816406 C 161.324219 160.730469 162.5 161.1875 164.007813 161.1875 C 164.613281 161.1875 165.234375 161.125 165.875 161.011719 C 166.515625 160.898438 167.101563 160.722656 167.640625 160.496094 L 168.003906 162.21875 C 167.433594 162.46875 166.789063 162.652344 166.070313 162.777344 C 165.351563 162.902344 164.628906 162.964844 163.902344 162.964844 C 162.761719 162.945313 161.773438 162.761719 160.933594 162.417969 C 160.09375 162.074219 159.371094 161.566406 158.765625 160.894531 C 158.160156 160.21875 157.710938 159.4375 157.414063 158.542969 C 157.121094 157.652344 156.976563 156.691406 156.976563 155.664063 C 156.976563 154.601563 157.117188 153.625 157.402344 152.730469 C 157.691406 151.835938 158.101563 151.058594 158.636719 150.394531 C 159.171875 149.730469 159.820313 149.21875 160.582031 148.855469 C 161.34375 148.492188 162.199219 148.3125 163.152344 148.3125 C 164.101563 148.3125 164.9375 148.476563 165.65625 148.800781 C 166.371094 149.128906 166.964844 149.589844 167.433594 150.183594 C 167.898438 150.777344 168.25 151.496094 168.480469 152.347656 C 168.71875 153.195313 168.832031 154.132813 168.832031 155.160156 L 168.832031 156.246094 Z M 159.105469 156.246094 "/>
<path style=" stroke:none;fill-rule:nonzero;fill:rgb(0%,65.882874%,52.941895%);fill-opacity:1;" d="M 42.558594 192.558594 L 46.53125 192.558594 C 47.148438 192.558594 47.699219 192.5 48.175781 192.386719 C 48.652344 192.269531 49.0625 192.085938 49.410156 191.828125 C 49.753906 191.574219 50.023438 191.222656 50.210938 190.78125 C 50.402344 190.339844 50.5 189.789063 50.5 189.132813 C 50.5 188.445313 50.375 187.878906 50.136719 187.433594 C 49.894531 186.992188 49.566406 186.648438 49.160156 186.398438 C 48.753906 186.152344 48.269531 185.976563 47.707031 185.871094 C 47.148438 185.761719 46.554688 185.710938 45.929688 185.710938 L 42.558594 185.710938 Z M 42.558594 183.773438 L 45.929688 183.773438 C 47.191406 183.773438 48.179688 183.523438 48.890625 183.03125 C 49.597656 182.535156 49.960938 181.703125 49.980469 180.535156 C 49.980469 179.898438 49.871094 179.378906 49.65625 178.980469 C 49.4375 178.582031 49.148438 178.273438 48.785156 178.050781 C 48.421875 177.832031 48.011719 177.679688 47.554688 177.601563 C 47.09375 177.519531 46.625 177.480469 46.140625 177.480469 L 42.558594 177.480469 Z M 40.300781 175.542969 L 46.582031 175.542969 C 47.394531 175.542969 48.140625 175.636719 48.824219 175.824219 C 49.507813 176.007813 50.105469 176.300781 50.613281 176.699219 C 51.125 177.097656 51.523438 177.601563 51.808594 178.210938 C 52.09375 178.824219 52.234375 179.550781 52.234375 180.402344 C 52.21875 181.570313 51.902344 182.503906 51.289063 183.203125 C 50.675781 183.902344 49.847656 184.382813 48.8125 184.648438 L 48.8125 184.703125 C 49.328125 184.808594 49.832031 184.972656 50.316406 185.191406 C 50.800781 185.414063 51.21875 185.703125 51.574219 186.054688 C 51.929688 186.410156 52.214844 186.84375 52.429688 187.355469 C 52.648438 187.871094 52.753906 188.480469 52.753906 189.1875 C 52.753906 189.894531 52.644531 190.566406 52.417969 191.207031 C 52.191406 191.839844 51.847656 192.40625 51.378906 192.890625 C 50.914063 193.375 50.308594 193.765625 49.5625 194.058594 C 48.820313 194.351563 47.929688 194.496094 46.894531 194.496094 L 40.300781 194.496094 Z M 40.300781 175.542969 "/>
<path style=" stroke:none;fill-rule:nonzero;fill:rgb(0%,65.882874%,52.941895%);fill-opacity:1;" d="M 62.820313 182.019531 C 62.507813 181.96875 62.128906 181.941406 61.679688 181.941406 C 61.214844 181.941406 60.785156 182.015625 60.394531 182.167969 C 60.007813 182.316406 59.660156 182.5625 59.359375 182.910156 C 59.054688 183.253906 58.820313 183.703125 58.65625 184.25 C 58.492188 184.796875 58.410156 185.480469 58.410156 186.292969 L 58.410156 194.496094 L 56.207031 194.496094 L 56.207031 180.480469 L 58.332031 180.480469 L 58.332031 182.367188 L 58.359375 182.367188 C 58.6875 181.625 59.144531 181.070313 59.734375 180.707031 C 60.320313 180.34375 61.054688 180.164063 61.941406 180.164063 C 62.058594 180.164063 62.226563 180.167969 62.433594 180.175781 C 62.640625 180.183594 62.804688 180.199219 62.925781 180.214844 Z M 62.820313 182.019531 "/>
<path style=" stroke:none;fill-rule:nonzero;fill:rgb(0%,65.882874%,52.941895%);fill-opacity:1;" d="M 74.628906 187.460938 C 74.628906 186.648438 74.542969 185.90625 74.382813 185.234375 C 74.214844 184.5625 73.964844 183.980469 73.628906 183.492188 C 73.292969 183.007813 72.859375 182.625 72.332031 182.355469 C 71.800781 182.078125 71.183594 181.941406 70.472656 181.941406 C 69.765625 181.941406 69.148438 182.078125 68.621094 182.355469 C 68.09375 182.625 67.660156 183.007813 67.324219 183.492188 C 66.988281 183.980469 66.738281 184.5625 66.570313 185.234375 C 66.40625 185.90625 66.324219 186.648438 66.324219 187.460938 C 66.324219 188.277344 66.410156 189.023438 66.585938 189.703125 C 66.757813 190.386719 67.011719 190.976563 67.347656 191.46875 C 67.6875 191.964844 68.117188 192.351563 68.632813 192.625 C 69.152344 192.898438 69.765625 193.035156 70.472656 193.035156 C 71.183594 193.035156 71.800781 192.898438 72.332031 192.625 C 72.859375 192.351563 73.292969 191.964844 73.628906 191.46875 C 73.964844 190.976563 74.214844 190.386719 74.382813 189.703125 C 74.542969 189.023438 74.628906 188.277344 74.628906 187.460938 M 76.832031 187.460938 C 76.832031 188.613281 76.6875 189.640625 76.390625 190.542969 C 76.097656 191.441406 75.671875 192.214844 75.121094 192.851563 C 74.566406 193.488281 73.902344 193.976563 73.125 194.308594 C 72.34375 194.648438 71.460938 194.816406 70.472656 194.816406 C 69.492188 194.816406 68.609375 194.648438 67.828125 194.308594 C 67.050781 193.976563 66.382813 193.488281 65.832031 192.851563 C 65.277344 192.214844 64.855469 191.441406 64.558594 190.542969 C 64.265625 189.640625 64.121094 188.613281 64.121094 187.460938 C 64.121094 186.328125 64.269531 185.308594 64.574219 184.394531 C 64.875 183.484375 65.292969 182.71875 65.832031 182.101563 C 66.367188 181.480469 67.035156 181.003906 67.828125 180.667969 C 68.625 180.332031 69.507813 180.160156 70.472656 180.160156 C 71.460938 180.160156 72.347656 180.332031 73.136719 180.667969 C 73.921875 181.003906 74.585938 181.480469 75.132813 182.101563 C 75.675781 182.71875 76.097656 183.484375 76.390625 184.394531 C 76.6875 185.308594 76.832031 186.328125 76.832031 187.460938 "/>
<path style=" stroke:none;fill-rule:nonzero;fill:rgb(0%,65.882874%,52.941895%);fill-opacity:1;" d="M 91.050781 180.480469 L 85.054688 186.746094 L 91.308594 194.496094 L 88.484375 194.496094 L 82.695313 187.144531 L 82.644531 187.144531 L 82.644531 194.496094 L 80.4375 194.496094 L 80.4375 174.988281 L 82.644531 174.988281 L 82.644531 186.53125 L 82.695313 186.53125 L 88.246094 180.480469 Z M 91.050781 180.480469 "/>
<path style=" stroke:none;fill-rule:nonzero;fill:rgb(0%,65.882874%,52.941895%);fill-opacity:1;" d="M 98.78125 181.941406 C 97.589844 181.941406 96.644531 182.339844 95.941406 183.136719 C 95.242188 183.929688 94.828125 184.992188 94.707031 186.320313 L 102.441406 186.320313 L 102.441406 186.214844 C 102.421875 184.871094 102.085938 183.828125 101.429688 183.082031 C 100.769531 182.339844 99.890625 181.960938 98.78125 181.941406 M 94.707031 188.097656 C 94.777344 189.570313 95.234375 190.757813 96.085938 191.667969 C 96.933594 192.582031 98.109375 193.035156 99.613281 193.035156 C 100.21875 193.035156 100.839844 192.976563 101.480469 192.863281 C 102.121094 192.75 102.707031 192.578125 103.242188 192.347656 L 103.609375 194.070313 C 103.039063 194.320313 102.390625 194.503906 101.675781 194.628906 C 100.957031 194.753906 100.234375 194.8125 99.507813 194.8125 C 98.367188 194.796875 97.375 194.613281 96.535156 194.269531 C 95.699219 193.925781 94.976563 193.417969 94.371094 192.746094 C 93.765625 192.070313 93.316406 191.289063 93.023438 190.394531 C 92.730469 189.5 92.582031 188.542969 92.582031 187.515625 C 92.582031 186.453125 92.722656 185.476563 93.011719 184.582031 C 93.292969 183.6875 93.707031 182.910156 94.242188 182.246094 C 94.777344 181.582031 95.429688 181.070313 96.1875 180.707031 C 96.949219 180.34375 97.804688 180.164063 98.753906 180.164063 C 99.707031 180.164063 100.542969 180.328125 101.261719 180.652344 C 101.976563 180.980469 102.570313 181.441406 103.039063 182.035156 C 103.503906 182.628906 103.855469 183.347656 104.089844 184.195313 C 104.320313 185.046875 104.441406 185.984375 104.441406 187.011719 L 104.441406 188.097656 Z M 94.707031 188.097656 "/>
<path style=" stroke:none;fill-rule:nonzero;fill:rgb(0%,65.882874%,52.941895%);fill-opacity:1;" d="M 114.609375 182.019531 C 114.296875 181.96875 113.917969 181.941406 113.464844 181.941406 C 113 181.941406 112.570313 182.015625 112.183594 182.167969 C 111.792969 182.316406 111.449219 182.5625 111.144531 182.910156 C 110.84375 183.253906 110.609375 183.703125 110.445313 184.25 C 110.28125 184.796875 110.199219 185.480469 110.199219 186.292969 L 110.199219 194.496094 L 107.992188 194.496094 L 107.992188 180.480469 L 110.121094 180.480469 L 110.121094 182.367188 L 110.148438 182.367188 C 110.472656 181.625 110.933594 181.070313 111.519531 180.707031 C 112.109375 180.34375 112.84375 180.164063 113.726563 180.164063 C 113.847656 180.164063 114.011719 180.167969 114.21875 180.175781 C 114.425781 180.183594 114.589844 180.199219 114.710938 180.214844 Z M 114.609375 182.019531 "/>
<path style=" stroke:none;fill-rule:nonzero;fill:rgb(33.332825%,33.724976%,35.293579%);fill-opacity:1;" d="M 402.609375 261.023438 L 399.226563 261.023438 L 399.226563 16.371094 L 402.609375 16.371094 Z M 402.609375 261.023438 "/>
</g>
</svg>
